<svg width="21" height="20" fill="none" xmlns="http://www.w3.org/2000/svg"><path d="M5.305 10.37c-2.372-3.038-1.488-6.983.967-8.96a6.392 6.392 0 0 1 8.264.217c2.351 2.12 2.937 5.86.685 8.768.131.084.26.165.388.25 2.986 1.955 4.527 4.726 4.669 8.284.021.543-.223.915-.655 1.033-.623.172-1.158-.26-1.167-.957a8.09 8.09 0 0 0-.928-3.7 7.97 7.97 0 0 0-3.568-3.496.52.52 0 0 0-.422.021c-2.166 1.205-4.33 1.215-6.489 0a.468.468 0 0 0-.526.013c-2.816 1.552-4.292 3.932-4.428 7.14-.02.51-.24.858-.641.975-.616.182-1.178-.255-1.172-.938a9.94 9.94 0 0 1 4.7-8.409c.097-.06.192-.122.285-.187.018-.01.026-.035.038-.054Zm4.94.53a4.54 4.54 0 0 0 4.215-2.77 4.547 4.547 0 0 0-3.254-6.223 4.54 4.54 0 0 0-4.164 7.629 4.557 4.557 0 0 0 3.203 1.364Z" fill="#545158"/></svg>