<svg width="21" height="20" fill="none" xmlns="http://www.w3.org/2000/svg"><g clip-path="url(#a)" fill="#545158"><path d="M2.671 1.814C2.768.596 3.194.036 4.031 0c.835-.035 1.26.484 1.467 1.81.385.016.771.009 1.156-.02.082 0 .186-.272.186-.423C6.9.357 7.837-.27 8.744.117a1.326 1.326 0 0 1 .834 1.325c0 .31.117.407.402.372a2.37 2.37 0 0 1 .257 0c.654 0 .654 0 .76-.63A1.373 1.373 0 0 1 12.399 0a1.34 1.34 0 0 1 1.304 1.363c0 .352.098.49.458.458.294-.027.592 0 .946 0 0-.618.044-1.204.588-1.541.251-.16.54-.252.838-.265.812 0 1.168.484 1.387 1.83a2.793 2.793 0 0 1 1.727.988c.414.498.637 1.128.63 1.776 0 4.203.014 8.404 0 12.607a2.703 2.703 0 0 1-2.766 2.77c-4.815.018-9.628.018-14.442 0-1.601 0-2.765-1.198-2.77-2.81C.28 13.001.276 8.827.284 4.655c.01-1.45.778-2.349 2.387-2.842Zm16.845 4.68H1.051v10.461c0 1.52.763 2.279 2.29 2.276H17.23c1.529 0 2.288-.756 2.29-2.276V6.495h-.004Zm-.052-.814c.237-1.732-.273-2.793-1.553-3.02-.216 1.227-.538 1.687-1.303 1.71-1.213.042-1.522-.768-1.535-1.802h-.69c-.213 0-.44.019-.652.028-.116 1.233-.498 1.74-1.304 1.786-.853.048-1.225-.384-1.52-1.782H9.633c-.186 1.266-.525 1.75-1.313 1.765-.31.001-.613-.08-.88-.234-.569-.334-.627-.932-.59-1.527H5.499c-.205 1.29-.559 1.772-1.358 1.767a1.775 1.775 0 0 1-.877-.265c-.518-.327-.594-.892-.579-1.463C1.248 2.909.822 4.226 1.138 5.68h18.326Zm-2.352-3.467c0-.284.019-.57 0-.852a.579.579 0 0 0-.601-.59.559.559 0 0 0-.62.559c-.032.558-.03 1.136 0 1.702a.615.615 0 1 0 1.229-.017c.005-.262-.008-.532-.008-.802Zm-12.419.022a8.9 8.9 0 0 0 0-.892.57.57 0 0 0-.622-.568.559.559 0 0 0-.61.585 21.439 21.439 0 0 0 0 1.659.594.594 0 0 0 .584.616.607.607 0 0 0 .646-.596c.023-.268.002-.538.002-.804Zm4.133-.026c0-.285.014-.57 0-.853a.559.559 0 0 0-.61-.581.559.559 0 0 0-.603.585 33.516 33.516 0 0 0 0 1.676.577.577 0 0 0 .587.609c.335.03.601-.237.624-.619.015-.277.002-.55.002-.82v.003Zm4.13-.01c0-.283.013-.558 0-.849a.602.602 0 0 0-1.203 0c-.02.559-.02 1.134 0 1.699a.604.604 0 0 0 1.205 0c.01-.285-.002-.57-.002-.853v.003Z"/><path d="M4.753 11.801c-.255 0-.512.01-.768 0a.962.962 0 0 1-.974-.98c-.014-.484 0-.968 0-1.452.012-.622.373-1.026.995-1.054.497-.022.998-.022 1.49 0 .614.028.985.427 1.003 1.052.013.442 0 .883 0 1.324-.01.723-.394 1.104-1.117 1.118h-.63V11.8Zm-.98-1.745c.015 1.097-.158 1.004.952 1.002 1.16 0 1.031.123 1.033-1.015 0-1.091.1-.983-.983-.98-1.14 0-.99-.124-1.002.993Zm8.242.015c0 .27.017.542 0 .81a.94.94 0 0 1-.942.916 25.66 25.66 0 0 1-1.58 0 .931.931 0 0 1-.93-.916 16.541 16.541 0 0 1 0-1.58.957.957 0 0 1 .968-.986 15.062 15.062 0 0 1 1.535 0 .969.969 0 0 1 .95.996c.012.255 0 .512 0 .767v-.007Zm-.733-.015c0-1.117.078-.978-.978-.987h-.043c-1.056.01-.978-.134-.976.989.002 1.123-.1 1.007.998 1.007 1.1 0 .987.127.999-1.009Zm-8.267 5.121v-.598c.01-.711.373-1.089 1.065-1.117.483-.011.969-.015 1.451 0a.95.95 0 0 1 .972.931 15.42 15.42 0 0 1 0 1.58.954.954 0 0 1-1.005.973c-.47.015-.932 0-1.408 0-.712-.011-1.071-.372-1.082-1.087.005-.216.007-.455.007-.682Zm2.745.013c0-1.037.127-.987-.946-.983-1.223 0-1.035-.103-1.039 1.048 0 1.054-.145.954.955.952 1.155-.006 1.02.134 1.03-1.017Zm10.036 1.756h-.726c-.604-.024-.987-.385-1.012-.989a19.895 19.895 0 0 1 0-1.49.969.969 0 0 1 1.01-.99c.497-.019.996-.019 1.49 0a.955.955 0 0 1 .986 1.007 31.4 31.4 0 0 1 0 1.453.954.954 0 0 1-.98 1.01c-.256.01-.513 0-.768 0Zm.998-1.728c-.017-1.074.171-1.013-.95-1.011-1.173 0-1.035-.099-1.035 1.017 0 1.115-.114.977.976.977 1.16 0 .996.129 1.009-.981v-.002Zm-6.512 1.728c-.27 0-.54.013-.81 0a.917.917 0 0 1-.916-.89 17.688 17.688 0 0 1 0-1.663.907.907 0 0 1 .9-.905 16.493 16.493 0 0 1 1.66 0 .907.907 0 0 1 .9.903c.026.525.026 1.053 0 1.58-.019.603-.393.955-1.008.975h-.726Zm1-1.715c0-1.126.114-1.022-.99-1.022-1.105 0-1.006-.11-1.006 1.005 0 1.116-.1.987 1.01.987 1.074 0 .984.142.986-.97Zm4.05-4.672 1.581-1.602c.186-.186.404-.372.65-.117s.067.464-.13.66c-.56.558-1.118 1.102-1.66 1.662-.273.281-.52.305-.797.011s-.583-.585-.873-.879c-.186-.186-.266-.43-.028-.58a.602.602 0 0 1 .546.066c.258.24.496.5.711.779Z"/></g><defs><clipPath id="a"><path fill="#fff" transform="translate(.284)" d="M0 0h19.998v20H0z"/></clipPath></defs></svg>