<svg width="21" height="20" fill="none" xmlns="http://www.w3.org/2000/svg"><g clip-path="url(#a)" fill="#23225C"><path d="M4.617 1.544c0-.287-.005-.524 0-.762a.774.774 0 0 1 1.297-.58c.153.137.246.33.259.535.02.247 0 .492 0 .774h7.652V.908c0-.542.314-.903.778-.908.464-.005.78.347.788.887v.65h.753c1.839.035 3.3 1.183 3.744 2.956.072.293.108.593.108.895.007 3.573.007 7.146 0 10.719a3.856 3.856 0 0 1-3.89 3.891c-4.072.004-8.144.004-12.216 0a3.857 3.857 0 0 1-3.89-3.9V5.413a3.842 3.842 0 0 1 3.784-3.867c.255-.007.518-.001.833-.001ZM1.564 7.726v8.24c0 1.497.965 2.468 2.462 2.468h11.968c1.477 0 2.448-.974 2.449-2.446V7.726H1.563Zm.027-1.61h16.831c.282-2.184-1.25-3.289-3.027-2.956 0 .493.01.985 0 1.486-.012.476-.377.788-.848.749-.42-.035-.704-.364-.71-.84-.006-.478 0-.95 0-1.421H6.18v1.393c0 .538-.326.88-.807.871-.48-.008-.753-.335-.755-.88v-1.36c-1.82-.33-3.312.814-3.025 2.958h-.002Z"/><path d="M9.992 11.56c-.26 0-.52.01-.779 0a.779.779 0 0 1 .015-1.557c.52-.01 1.038-.012 1.558 0a.778.778 0 0 1 .015 1.554c-.269.014-.54.002-.81.002Zm-4.586 0c-.259 0-.519.008-.778 0a.778.778 0 1 1 0-1.558c.508-.01 1.017-.01 1.526 0a.778.778 0 1 1 0 1.558c-.25.008-.499 0-.748 0Zm9.223-1.561c.26 0 .52-.009.778 0a.789.789 0 0 1 .76.76.777.777 0 0 1-.755.794c-.529.016-1.059.015-1.588 0a.773.773 0 0 1-.756-.789.78.78 0 0 1 .782-.766c.26-.007.519.001.779.001ZM10 16.176c-.238 0-.477.005-.715 0-.484-.013-.835-.344-.837-.788-.002-.445.344-.772.833-.777a60.54 60.54 0 0 1 1.464 0c.465.007.805.34.805.772a.796.796 0 0 1-.77.788c-.259.015-.52 0-.78 0v.005Zm-4.608-1.563c.259 0 .52-.008.778 0a.772.772 0 0 1 .77.743.764.764 0 0 1-.708.805c-.56.029-1.12.029-1.68 0a.776.776 0 0 1 .062-1.548c.259-.007.519 0 .778 0Zm9.221-.001c.26 0 .52-.005.778 0a.774.774 0 0 1 .07 1.547c-.56.03-1.122.03-1.681 0a.765.765 0 0 1-.712-.802c.015-.423.344-.737.797-.748.25-.002.499.003.748.003Z"/></g><defs><clipPath id="a"><path fill="#fff" d="M0 0h20.007v20H0z"/></clipPath></defs></svg>