<svg width="17" height="16" fill="none" xmlns="http://www.w3.org/2000/svg"><g clip-path="url(#a)"><path d="M11.841 13.195H7.406c.044.1.085.185.118.268a1.786 1.786 0 0 1-3.109 1.733 1.763 1.763 0 0 1 .425-2.405c.179-.132.207-.234.149-.443a1468.52 1468.52 0 0 1-2.252-8.22 119.645 119.645 0 0 1-.793-3.062c-.06-.242-.165-.308-.406-.3C1.028.784.523.77 0 .77V0h2.025c.356 0 .451.075.546.425.247.917.504 1.832.734 2.754.066.26.179.328.44.327A3761.7 3761.7 0 0 1 15.857 3.5h.26c.379.014.531.214.433.58-.322 1.21-.647 2.42-.974 3.628l-.68 2.527c-.216.803-.774 1.24-1.603 1.24H6.006c-.128 0-.255-.015-.433-.025.085.304.15.595.25.871.02.055.17.085.255.09 1.461.006 2.922 0 4.383 0h2.88a1.803 1.803 0 0 1 1.495 2.823 1.764 1.764 0 0 1-1.066.71c-.7.163-1.31-.042-1.77-.595-.46-.552-.532-1.2-.255-1.87.032-.08.074-.156.11-.234.004-.006-.003-.016-.014-.05Zm-8.229-8.9c.015.082.022.148.04.212.513 1.865 1.025 3.73 1.535 5.594.12.432.39.63.861.63h7.233c.483 0 .735-.193.861-.66.43-1.602.857-3.204 1.282-4.806.085-.313.164-.628.255-.97H3.612Zm10.786 9.922a1.02 1.02 0 1 0-2.041 0 1.02 1.02 0 0 0 2.041 0Zm-7.47 0a1.026 1.026 0 1 0 0 .003v-.003Z" fill="#23225C"/></g><defs><clipPath id="a"><path fill="#fff" d="M0 0h16.579v16H0z"/></clipPath></defs></svg>