<svg width="20" height="20" fill="none" xmlns="http://www.w3.org/2000/svg"><g clip-path="url(#a)" fill="#545158"><path d="M19.588 11.454v6.683c0 .953-.542 1.652-1.4 1.83a2.04 2.04 0 0 1-.427.033H5.194C2.524 20 .225 17.89.02 15.28c-.226-2.857 1.582-5.276 4.306-5.747.251-.043.283-.153.282-.367a1780.23 1780.23 0 0 1 0-7.308c0-.94.527-1.628 1.376-1.815.14-.028.283-.04.425-.038h8.604a.875.875 0 0 1 .68.289 604.064 604.064 0 0 0 3.59 3.637 1.008 1.008 0 0 1 .312.77c-.012 2.254-.008 4.502-.008 6.753ZM14.587 1.203c-.099-.01-.15-.02-.2-.02h-7.99c-.433 0-.642.221-.643.693v7.34c0 .212.071.281.272.312.8.131 1.559.451 2.215.935.14.096.305.15.474.153 2.458.01 4.916.007 7.374.008a1.67 1.67 0 0 1 .307.009c.13.013.25.072.34.168.09.095.145.22.153.351a.54.54 0 0 1-.07.363.525.525 0 0 1-.287.228 1.223 1.223 0 0 1-.42.057H9.607c.28.788.542 1.542.825 2.33h5.784c.389 0 .644.209.677.536.038.365-.24.64-.663.64h-5.888c-.184 1.392-.793 2.543-1.887 3.507h9.198c.604 0 .784-.183.784-.802V5.424c0-.11-.01-.22-.018-.354h-3.162c-.444 0-.662-.22-.668-.669-.008-.51 0-1.02 0-1.53l-.002-1.668Zm-9.41 17.622a3.986 3.986 0 0 0 2.239-.693 4.082 4.082 0 0 0 1.482-1.841 4.16 4.16 0 0 0 .226-2.367 4.118 4.118 0 0 0-1.106-2.096 4.01 4.01 0 0 0-2.066-1.118 3.968 3.968 0 0 0-2.328.237A4.044 4.044 0 0 0 1.82 12.46a4.135 4.135 0 0 0 .513 5.165 4 4 0 0 0 2.846 1.194v.006Zm12.23-14.94-1.637-1.66v1.66h1.637Z"/><path d="M12.097 7.117h4.144c.482 0 .776.384.611.794-.117.29-.354.375-.65.373h-3.684c-1.503 0-3.008.01-4.512-.01a.86.86 0 0 1-.584-.245.621.621 0 0 1-.055-.565.722.722 0 0 1 .495-.33c.508-.045 1.022-.017 1.533-.017h2.702ZM4.4 15.556l2.02-2.062c.087-.088.17-.182.263-.261a.572.572 0 0 1 .782.024.574.574 0 0 1 .032.79c-.138.167-.298.315-.45.469L4.9 16.699c-.381.386-.668.39-1.046.009l-.975-.992c-.279-.288-.304-.638-.072-.88.232-.243.59-.236.892.06.206.204.407.41.612.614a.573.573 0 0 0 .09.046Z"/></g><defs><clipPath id="a"><path fill="#fff" d="M0 0h19.592v20H0z"/></clipPath></defs></svg>