<svg width="20" height="20" fill="none" xmlns="http://www.w3.org/2000/svg"><path d="M9.997 20a10 10 0 1 1 .006-20 10 10 0 0 1-.006 20ZM7.675 8.415v3.718c0 .61.246.856.852.857H11.4c.69 0 .918-.226.919-.914V8.735c0-.237.052-.345.31-.325.257.02.54 0 .812.008.329.011.595-.079.76-.388.167-.31.109-.592-.11-.868-.27-.342-.52-.7-.78-1.053a1458.98 1458.98 0 0 1-2.587-3.49c-.283-.381-.91-.433-1.17-.1a3438.494 3438.494 0 0 0-3.652 4.675.79.79 0 0 0-.091.879c.134.286.392.346.68.343.381-.005.764 0 1.184 0Zm.135 6.937h4.363v-1.334H7.81v1.334Zm3.804 1.05H8.392v1.323h3.227l-.005-1.322Z" fill="#fff"/><path d="M10.942 11.601h-1.87c-.007-.115-.018-.225-.018-.336V7.954c0-.693-.217-.908-.918-.916-.091 0-.183-.009-.349-.018l2.305-2.946 2.189 2.965h-.563c-.508.01-.773.265-.774.775v3.436l-.002.351Z" fill="#fff"/></svg>