<svg width="24" height="24" fill="none" xmlns="http://www.w3.org/2000/svg"><g clip-path="url(#a)" fill="#8E8997"><path d="M12.178 20c-2.318-.01-4.28-.675-6.118-1.743-2.474-1.434-4.534-3.345-6.296-5.58-.428-.544-.43-.815 0-1.362C1.906 8.636 4.404 6.389 7.57 4.98c3.185-1.416 6.344-1.28 9.452.274 2.906 1.452 5.247 3.587 7.251 6.113.349.447.383.776.066 1.174-2.325 2.935-5.04 5.367-8.58 6.744a10.454 10.454 0 0 1-3.582.715Zm.034-14.344a9.068 9.068 0 0 0-3.275.571c-3.023 1.128-5.363 3.188-7.432 5.595a.404.404 0 0 0 .021.383c1.702 1.994 3.628 3.72 5.97 4.945 2.854 1.488 5.736 1.596 8.655.174 2.516-1.224 4.544-3.042 6.357-5.135.16-.186.069-.293-.05-.43-1.485-1.723-3.139-3.256-5.098-4.43-1.647-.99-3.404-1.65-5.148-1.673Z"/><path d="M12.018 16.96a4.958 4.958 0 1 1-.036-9.917 4.958 4.958 0 0 1 .036 9.916Zm-.02-8.266a3.307 3.307 0 1 0 3.06 2.058 3.313 3.313 0 0 0-3.06-2.058Z"/></g><defs><clipPath id="a"><path fill="#fff" d="M0 0h24v24H0z"/></clipPath></defs></svg>