<svg width="23" height="16" fill="none" xmlns="http://www.w3.org/2000/svg"><g clip-path="url(#a)" fill="#23225C"><path d="M14.63 2.85H7.166c-.265 0-.385.073-.495.324-.396.904-1.115 1.376-2.1 1.396a2.231 2.231 0 0 1-2.112-1.44c-.086-.213-.185-.293-.412-.285-.464.016-.928.01-1.393 0C.253 2.84.007 2.624 0 2.29c-.007-.334.245-.578.666-.578.476-.006.954.013 1.428-.012a.452.452 0 0 0 .327-.223C2.839.529 3.55 0 4.583 0c1.03 0 1.742.522 2.119 1.467.106.27.276.245.475.245h14.795c.13-.006.262-.003.392.01a.542.542 0 0 1 .5.546.554.554 0 0 1-.52.574c-.12.009-.239.011-.358.007l-7.355.001ZM4.57 1.138a1.142 1.142 0 1 0 .003 2.284 1.142 1.142 0 0 0-.003-2.284Zm3.677 6.291h7.43c.267 0 .407-.054.527-.329.393-.906 1.118-1.39 2.102-1.386.984.003 1.7.489 2.09 1.403.105.245.22.322.47.312.451-.017.905-.01 1.358 0 .397.007.643.23.645.564.003.333-.244.565-.638.572-.476.008-.953.007-1.428 0a.331.331 0 0 0-.367.237c-.384.943-1.1 1.448-2.117 1.48-.957.033-1.776-.532-2.154-1.479-.109-.272-.286-.232-.482-.232H.932a2.767 2.767 0 0 1-.428-.012C.194 8.509.006 8.32 0 8.002c-.006-.317.182-.507.49-.56.13-.015.26-.02.392-.013h7.365Zm11.194.58a1.141 1.141 0 1 0-2.282-.02 1.141 1.141 0 0 0 2.282.02Zm-1.366 6.281h-4.072c-.244 0-.366.075-.468.314-.391.907-1.109 1.397-2.092 1.4-.983.005-1.712-.478-2.1-1.387-.123-.275-.266-.328-.532-.328-2.568.009-5.143 0-7.714 0h-.25c-.576 0-.857-.19-.847-.58.01-.388.274-.559.83-.559h7.965c.277 0 .431-.053.557-.345.384-.894 1.108-1.366 2.079-1.37.97-.003 1.695.464 2.078 1.355.131.3.287.367.582.367 2.62-.01 5.24 0 7.859 0h.321c.367.022.602.253.597.577-.005.324-.234.532-.58.558-.107.007-.214 0-.321 0l-3.892-.002Zm-6.625.572a1.143 1.143 0 1 0-1.156-1.118 1.148 1.148 0 0 0 1.156 1.118Z"/></g><defs><clipPath id="a"><path fill="#fff" d="M0 0h22.869v16H0z"/></clipPath></defs></svg>