<svg width="22" height="22" fill="none" xmlns="http://www.w3.org/2000/svg"><path d="M10.954 3.254c2.521 0 2.796 0 3.805.046.916.046 1.42.184 1.741.321.413.138.78.413 1.1.688.321.32.55.687.688 1.1.137.32.275.825.32 1.741.046 1.009.046 1.284.046 3.804 0 2.521 0 2.796-.045 3.805-.046.916-.184 1.42-.321 1.741a3.122 3.122 0 0 1-1.788 1.788c-.32.137-.825.275-1.741.32-1.009.046-1.284.046-3.805.046-2.52 0-2.795 0-3.804-.045-.916-.046-1.42-.184-1.741-.321-.413-.138-.78-.413-1.1-.688a2.782 2.782 0 0 1-.688-1.1c-.137-.32-.275-.825-.32-1.741-.047-1.009-.047-1.284-.047-3.805 0-2.52 0-2.795.046-3.804.046-.916.184-1.42.321-1.741.138-.413.413-.78.688-1.1.32-.321.687-.55 1.1-.688.32-.137.825-.275 1.741-.32 1.009-.047 1.33-.047 3.804-.047Zm0-1.695c-2.566 0-2.887 0-3.895.045-1.009.046-1.696.184-2.292.459a4.65 4.65 0 0 0-1.604 1.054c-.459.458-.871 1.054-1.1 1.65-.23.596-.413 1.283-.459 2.292-.045 1.008-.045 1.329-.045 3.895 0 2.567 0 2.888.045 3.896.046 1.009.184 1.696.459 2.292.229.596.596 1.192 1.1 1.65.458.458 1.054.87 1.65 1.1.596.23 1.283.412 2.291.458 1.009.046 1.33.046 3.896.046 2.567 0 2.888 0 3.896-.046s1.696-.183 2.292-.458a4.782 4.782 0 0 0 2.75-2.75c.229-.596.412-1.283.458-2.292.046-1.008.046-1.329.046-3.896 0-2.566 0-2.887-.046-3.895-.046-1.009-.183-1.696-.458-2.292a4.029 4.029 0 0 0-1.1-1.65c-.459-.458-1.054-.87-1.65-1.1-.596-.23-1.284-.413-2.292-.458h-3.942Z" fill="#F8F8F8"/><path d="M10.953 6.142a4.812 4.812 0 1 0 0 9.625 4.812 4.812 0 0 0 4.813-4.813c.046-2.658-2.109-4.812-4.813-4.812Zm0 7.975A3.12 3.12 0 0 1 7.836 11a3.12 3.12 0 0 1 3.117-3.117A3.12 3.12 0 0 1 14.07 11c.046 1.696-1.375 3.117-3.117 3.117Zm5.044-7.013a1.146 1.146 0 1 0 0-2.291 1.146 1.146 0 0 0 0 2.291Z" fill="#F8F8F8"/></svg>