<svg width="22" height="18" fill="none" xmlns="http://www.w3.org/2000/svg"><path d="M18.763 3.13A4.179 4.179 0 0 0 20.595.825a8.344 8.344 0 0 1-2.646 1.011 4.167 4.167 0 0 0-7.1 3.8 11.829 11.829 0 0 1-8.588-4.353 4.147 4.147 0 0 0-.564 2.095c0 1.445.736 2.72 1.854 3.468a4.15 4.15 0 0 1-1.887-.521v.052a4.169 4.169 0 0 0 3.342 4.085 4.173 4.173 0 0 1-1.882.072 4.17 4.17 0 0 0 3.892 2.893 8.36 8.36 0 0 1-5.174 1.784 8.47 8.47 0 0 1-.994-.058 11.793 11.793 0 0 0 6.386 1.871c7.664 0 11.855-6.348 11.855-11.854 0-.18-.004-.36-.012-.539a8.468 8.468 0 0 0 2.079-2.157 8.33 8.33 0 0 1-2.393.656Z" fill="#F8F8F8"/></svg>