<svg width="18" height="16" fill="none" xmlns="http://www.w3.org/2000/svg"><path d="M13.05 0A5.474 5.474 0 0 0 9 1.818 5.474 5.474 0 0 0 4.95 0C2.174 0 0 2.106 0 4.796c0 3.291 3.06 5.981 7.695 10.057L9 16l1.305-1.147C14.94 10.777 18 8.087 18 4.796 18 2.106 15.826 0 13.05 0ZM9.094 13.563 9 13.646l-.095-.083C4.627 9.8 1.8 7.316 1.8 4.796c0-1.74 1.355-3.052 3.15-3.052 1.386 0 2.736.867 3.208 2.058h1.679c.477-1.19 1.827-2.058 3.213-2.058 1.795 0 3.15 1.312 3.15 3.052 0 2.52-2.826 5.005-7.105 8.767Z" fill="#fff"/></svg>