<svg width="16" height="16" fill="none" xmlns="http://www.w3.org/2000/svg"><path fill-rule="evenodd" clip-rule="evenodd" d="M7.09 5.07c.414-.558.562-1.147.094-1.666C6.132 1.932 5.424 1.022 4.98.584 4.137-.25 2.749-.137 2.019.583c-.393.386-.525.52-.928.929-2.245 2.245-.876 6.992 2.762 10.634 3.638 3.641 8.385 5.01 10.634 2.76.371-.358.686-.673.934-.936.716-.756.825-2.083-.004-2.944-.425-.442-1.293-1.115-2.827-2.213-.47-.42-1.027-.329-1.537.006-.246.162-.425.325-.762.662l-.613.614c-.081.08-1.177-.468-2.241-1.534C6.372 7.496 5.823 6.4 5.904 6.32l.613-.614c.107-.107.158-.159.224-.228.137-.144.25-.274.348-.406Zm3.718 6.156.613-.613c.186-.186.306-.3.404-.38 1.344.965 2.122 1.572 2.44 1.902.19.199.161.56-.005.736-.23.242-.528.54-.894.894-1.454 1.455-5.285.35-8.382-2.75-3.097-3.1-4.202-6.932-2.759-8.376.402-.408.529-.535.916-.916.145-.143.54-.175.716 0 .342.337.976 1.148 1.908 2.446-.049.06-.109.128-.182.205a10.65 10.65 0 0 1-.197.2l-.613.613C3.731 6.23 4.62 8.004 6.306 9.692c1.686 1.688 3.46 2.577 4.502 1.534Z" fill="#fff"/></svg>