<svg width="20" height="20" fill="none" xmlns="http://www.w3.org/2000/svg"><path d="M10 0C5.926 0 2.612 3.314 2.612 7.388c0 1.341.601 2.784.627 2.845.194.46.577 1.177.854 1.597l5.065 7.675c.207.315.514.495.842.495.328 0 .634-.18.842-.495l5.066-7.675c.277-.42.66-1.136.854-1.598.025-.06.626-1.502.626-2.844C17.388 3.314 14.074 0 10 0Zm5.96 9.895c-.173.414-.53 1.08-.778 1.456l-5.066 7.676c-.1.152-.132.152-.232 0L4.818 11.35a10.928 10.928 0 0 1-.778-1.456c-.007-.018-.559-1.346-.559-2.507A6.526 6.526 0 0 1 10 .87a6.526 6.526 0 0 1 6.519 6.52c0 1.162-.553 2.493-.558 2.506Z" fill="#545158"/><path d="M10 3.477a3.916 3.916 0 0 0-3.91 3.911A3.916 3.916 0 0 0 10 11.3a3.916 3.916 0 0 0 3.911-3.912 3.916 3.916 0 0 0-3.91-3.91Zm0 6.954a3.046 3.046 0 0 1-3.042-3.043A3.046 3.046 0 0 1 10 4.346a3.046 3.046 0 0 1 3.042 3.042A3.046 3.046 0 0 1 10 10.431Z" fill="#545158"/></svg>