<svg width="110" height="32" fill="none" xmlns="http://www.w3.org/2000/svg"><g clip-path="url(#a)"><path d="M8.87 13.247c1.192.484 2.343 1.059 3.535 1.54.954.29 1.273.82 1.592 1.025a.453.453 0 0 0 .222.092c.042.005.183-.02.197-.066.077-.254-.293-.841-.375-.985-.447-.785-1.036-1.431-1.532-2.19-.488-.748-.961-1.53-1.596-2.162-.818-.814-1.748-1.198-2.901-1.198-1.21 0-1.767.03-2.94.545-.74.325-1.424.726-2.113 1.138-.48.288-.897.689-1.22 1.149-.512.735-.676 1.54-.687 2.65-.01.848 3.252 1.381 4.019 1.515 1.865.33 3.798.507 5.69.616.466.026.934.047 1.403.064.356.011.72.098 1.066.018.16-.035.38-.162.366-.325-.054-.634-.143-.61-.963-.931-.445-.182-.74-.297-1.2-.439a25.849 25.849 0 0 0-2.754-.778c-1.052-.236-2.102-.4-3.182-.4-.155 0-.651-.02-.776.054a2.533 2.533 0 0 1-.675.29c-.248.073-.501.13-.754.186-.091-.516-.204-1.035-.27-1.556-.06-.474-.044-.788.359-1.042.084-.052.115-.045.201-.036 1.7.175 3.462.422 5.154.462a.163.163 0 0 1 .14.125c.038.222-.004.41-.007.64Zm-8.74 3.07c-.084-.688-.147-1.384-.126-2.077.019-.627.11-1.25.34-1.837.396-1.018 1.134-1.744 2.046-2.313h.004c.612-.353 1.23-.688 1.856-1.018.593-.314 1.188-.625 1.779-.948.152-.082.333-.188.464-.306.021-.02.11-.106.1-.142-.006-.028-.086-.056-.11-.063a1.576 1.576 0 0 0-.407-.057H6.07c-.66-.05-2.547-.269-2.535-1.205.002-.238.19-.471.356-.627.222-.207.508-.372.797-.471a1.83 1.83 0 0 1 .595-.106c1.87 0 2.165.153 3.625 1.14 2.072-1.855 4.146-3.71 6.217-5.566l.007-.007.003-.007c.175-.101.414-.165.611-.212.314-.075.64-.125.961-.167.422-.057.846-.097 1.27-.132.509-.04 1.02-.073 1.53-.097a87.99 87.99 0 0 1 3.63-.094A136.078 136.078 0 0 1 31 .177c1.156.059 2.313.136 3.466.243.497.044.996.096 1.493.158.427.051.85.11 1.275.181.34.057.68.12 1.012.205.24.06.5.13.722.231.143.087.134.146-.026.177-2.58-.165-5.195-.278-7.78-.337a142.737 142.737 0 0 0-5.858-.024c-.907.017-1.816.043-2.723.085-.82.033-1.645.083-2.468.153h-.009c-.788 0-1.58.033-2.363.132a9.705 9.705 0 0 0-1.795.387c-.92.302-1.701.755-2.378 1.455-.577.599-1.024 1.313-1.434 2.034-.235.41-.46.828-.687 1.245-.23.418-.46.832-.7 1.243 2.952.12 5.902.243 8.855.363.748-.403 2.737-.42 3.735-.41.928.009 1.882.139 2.81.183 1.015.05 2.03.111 3.042.175 1.715.11 3.43.236 5.148.332.713.04 1.425.076 2.138.097.293.007.588.014.883.012.244 0 .485-.005.729-.017h.005c.375-.004.75-.002 1.122.02.27.013.541.035.809.077.161.026.349.059.501.12.094.038.218.104.22.222 0 .118-.121.186-.215.226a2.413 2.413 0 0 1-.502.13 7.795 7.795 0 0 1-.813.092c-.377.026-.754.037-1.132.04-5.2.03-10.402 0-15.602 0h-1.887a15.068 15.068 0 0 0 .546.728 25.754 25.754 0 0 0 1.809 2.042c.586.582 1.346.953 1.784 1.415.117.122.232.242.316.389a.734.734 0 0 1 .068.639c-.126.356-.283.195-.504.018-1.068-.853-1.935-1.12-2.924-1.81-.713-.498-1.364-1.082-2.01-1.665-.692-.622-1.377-1.237-2.122-1.794-2.268.012-4.232.127-5.856.137.096.48.284.846.619 1.318.576.808 1.141 1.615 1.71 2.44.183.266.38.526.572.783.235.31.469.622.696.938.19.262.375.523.55.795.074.242.226.492.357.75.15.299.398.843.185 1.162-.124.188-.358.233-.57.238h-.004c-3.979-.165-7.55-.248-11.089-.743l-.01-.002-.006-.003a2.508 2.508 0 0 0-.42-.092 4.296 4.296 0 0 0-.576-.05c-.251-.004-.661.017-.898.168 0 0-.01.007-.012.01 0 .002.015.02.015.023.248.373.754.691 1.124.889.307.165.626.309.95.436a13.001 13.001 0 0 0 2.299.665c.8.123 1.602.229 2.406.33 1.008.127 2.018.243 3.025.354 2.36.257 4.722.48 7.09.676 1.956.163 3.917.304 5.877.41.799.015 1.598.034 2.395.071.562.026 1.124.057 1.684.106.195.02.39.038.584.064.138.019.279.04.417.069.084.018.18.04.262.075.066.028.136.075.136.155 0 .085-.077.13-.145.159a1.624 1.624 0 0 1-.279.075 6.9 6.9 0 0 1-.436.066c-.199.023-.4.042-.6.056-.56.043-1.12.069-1.68.085a74.82 74.82 0 0 1-2.301.031c-5.2-.002-10.4 0-15.6 0-.25.01-.548.05-.773.165-.11.057-.242.153-.254.288-.009.103.054.198.125.268.126.128.316.22.482.283 1.31.264 2.627.481 3.951.658 3.586.476 7.202.65 10.813.75.656.019 1.312.05 1.966.101.494.04.991.09 1.481.168.18.028.363.06.544.103.136.031.272.069.403.116.136.05.384.15.384.328.002.162-.204.257-.33.308-.117.045-.24.08-.361.111a6.183 6.183 0 0 1-.504.104c-.485.085-.98.14-1.472.186-.707.066-1.417.111-2.127.146H17.78c-2.756 0-5.51.118-8.258.286-.234.014-.518.054-.731.158-.066.033-.211.113-.209.202 0 .083.132.156.192.184.21.097.495.135.722.149h.005c2.266.252 4.537.431 6.815.542 2.261.108 4.522.149 6.786.149h.005c.616.016 1.232.035 1.849.06.454.02.909.041 1.361.072.164.011.326.023.49.04.12.012.24.023.359.042.075.012.157.026.23.047.063.021.135.057.138.135.002.075-.064.113-.125.134-.065.024-.14.04-.208.052-.11.021-.223.038-.333.052-.155.021-.312.038-.469.054-.452.047-.904.083-1.356.113-.647.047-1.296.087-1.943.123h-.005l-9.727.002c-.036.194-.066.39-.096.585A13.1 13.1 0 0 1 13 30.649c-.178.667-1.038.587-1.57.585l-9.463-.026c-.54.012-1.287-.46-1.308-1.021L.138 16.364l-.007-.047Z" fill="#FCE415"/><path d="m101.336 24.062-.19 1.04h-.839l.185-1.04h.844Zm.117 2.258-.588 3.259h1.54l-.122.693h-3.968l.12-.693h1.563l.558-3.098h-1.14l.14-.696h1.328c.358 0 .616.243.569.535ZM82.98 24.595l-.9 4.984h1.795l-.12.693-3.55-.002.122-.694.872.003.874-4.824h-1.48l.133-.695h1.795c.36.002.515.242.46.535Zm-3.48 1.19-.691 3.794h.731l-.12.693h-.822c-.169 0-.227-.156-.286-.172-.084.03-.133.172-.298.172h-2.643c-.358 0-.607-.238-.55-.53l.712-3.957h.815l-.677 3.794h2.33l.684-3.794h.815Zm-4.874.533-.621 3.45c-.052.282-.363.504-.708.504h-2.706c-.357 0-.603-.238-.551-.53l1.024-5.682h.81l-.311 1.723h2.512c.359.002.602.243.55.535Zm-3.738 3.26h2.327l.558-3.097h-2.334l-.55 3.098Zm18.07-3.258-.94 5.173c-.053.283-.358.507-.705.507h-3.356l.134-.695h3.145l.187-1.03h-2.498c-.358 0-.602-.239-.55-.531l.618-3.45c.054-.282.361-.506.708-.506h2.711c.356 0 .6.24.546.532Zm-3.738 3.261h2.327l.558-3.098H85.77l-.549 3.098Zm13.407-3.38-.051.28-2.142-.003-.558 3.098h.874l-.122.694h-3.686c-.169 0-.223-.154-.284-.173-.084.029-.138.172-.302.172h-2.64c-.36 0-.6-.238-.552-.53l.621-3.45c.054-.282.361-.506.708-.506h2.71c.358 0 .601.24.547.533l-.59 3.26h1.851l.6-3.286c.054-.283.359-.507.708-.507h1.685c.382.002.628.191.623.417Zm-8.614 3.378h2.327l.557-3.098h-2.334l-.55 3.098Zm14.449-3.794h2.707c.361 0 .604.238.548.533l-.609 3.26h.747l-.121.694h-.823c-.169 0-.225-.156-.283-.172-.085.03-.136.172-.3.172h-2.644c-.358 0-.604-.238-.548-.53l.621-3.45c.049-.283.356-.507.705-.507Zm-.478 3.794h2.327l.558-3.098h-2.334l-.551 3.098Z" fill="#333"/><path d="m32.936 22.154 27.404.012-.222 1.28H32.65l.286-1.292Zm29.206-10.121-.342 1.893h-1.504l.274-1.563h-4.643l-.389 2.172 4.865.705c.603.075 1.097.431.992 1.011l-.516 2.78c-.1.558-.656.976-1.289.976L53.23 20l.232-1.295 5.971.007.387-2.173-4.865-.7c-.6-.076-1.097-.434-.991-1.012l.501-2.78c.101-.558.69-.976 1.322-.976h5.338c.647-.002 1.123.387 1.017.962Zm-16.512-.964h5.338c.647 0 1.128.434 1.024 1.009L50.8 18.682c-.007.026.016.028.044.028h1.406l-.23 1.294h-1.558c-.293 0-.447-.346-.572-.346-.103.011-.306.346-.578.346h-5.214c-.645 0-1.146-.445-1.043-1.02l1.256-6.939c.098-.559.686-.976 1.32-.976Zm-.989 7.641h4.612l1.144-6.35h-4.612l-1.144 6.35Zm26.71 3.444 37.115.012-.22 1.28H71.119l.232-1.292Zm38.007-11.085-.244 1.294h-3.471l-1.143 6.349h4.555l-.171.95-.079.342h-5.339c-.644 0-.728-.519-.625-1.094l1.185-6.547h-2.221l.244-1.294 2.212.004 1.043-1.742h1.596l-1.02 1.742 3.478-.004Zm-9.635.961-1.448 7.96h-1.519l1.378-7.641h-4.626l-1.366 7.655h-1.537l1.427-7.973c.1-.559.652-.976 1.284-.976h5.592c.7.004.9.525.815.976Zm-18.632.302h-4.966l-1.136 6.35h1.703l-.23 1.308H71.72l.234-1.308h1.38l1.188-6.668c.099-.558.69-.976 1.322-.976l4.678.01c.52 0 .768.08.693.587l-.124.697Zm-9.275-1.296-2.055 11.25c-.145.913-.727 1.16-1.423 1.16h-6.107l.244-1.294h5.779l.391-2.169-4.916-.014c-.645-.002-1.116-.436-1.012-1.011l1.427-7.915 1.528-.002-1.376 7.636h4.586l1.376-7.634 1.558-.007Zm11.789-4.76h-2.221l-.33 1.04H79.05l2.458-6.31h2.147l2.31 6.31H83.91l-.305-1.04Zm-.4-1.365-.668-2.268-.722 2.268h1.39ZM51.413 3.57h.83c.527 0 .962-.14.97-.652.007-.566-.462-.635-.922-.635h-.862l-.016 1.288Zm-2.01 3.745.07-6.31h3.268c1.24 0 2.456.22 2.44 1.755-.012.987-.621 1.565-1.554 1.775.516.172.832.457 1.085.957l.933 1.823h-2.217l-1.026-1.924c-.195-.373-.375-.632-.83-.632H51.4l-.029 2.556h-1.968Zm56.363-3.744h.83c.527 0 .963-.142.97-.653.007-.566-.462-.635-.921-.635h-.863l-.016 1.288Zm-2.011 3.744.071-6.31h3.269c1.239 0 2.456.22 2.439 1.755-.012.987-.621 1.565-1.554 1.775.516.172.832.457 1.085.957l.933 1.823h-2.217l-1.026-1.924c-.195-.373-.375-.632-.83-.632h-.173l-.028 2.556h-1.969Zm-3.224-1.04H98.31l-.33 1.04h-2.004l2.458-6.31h2.147l2.311 6.31h-2.056l-.304-1.04Zm-.401-1.365-.668-2.268-.722 2.268h1.39Zm-6.3-.177 1.714.516c-.12.479-.307.88-.56 1.2-.253.32-.563.564-.933.726-.37.163-.839.246-1.408.246-.692 0-1.254-.1-1.69-.297-.436-.2-.808-.552-1.12-1.052-.312-.5-.466-1.143-.457-1.926.012-1.042.3-1.844.865-2.405.567-.559 1.359-.84 2.383-.84.8 0 1.427.161 1.882.482.452.32.79.816 1.003 1.483l-1.732.38a1.46 1.46 0 0 0-.185-.42 1.118 1.118 0 0 0-.933-.462c-.447 0-.79.176-1.03.532-.181.262-.277.677-.284 1.24-.008.7.093 1.177.304 1.436.211.26.511.387.898.387.375 0 .66-.104.855-.314.195-.21.335-.514.429-.912ZM69.904 1.007h5.967l-.017 1.56H73.85l-.052 4.75h-1.96l.053-4.75h-2.004l.016-1.56Zm-7.084 0h1.83l2.34 3.483.038-3.484h1.854l-.07 6.309h-1.854l-2.33-3.466-.037 3.466h-1.844l.072-6.31Zm-6.39 0h5.249l-.014 1.348h-3.281l-.012 1.004h3.042L61.4 4.647h-3.042l-.014 1.242h3.377l-.016 1.427h-5.346l.07-6.31Z" fill="#FCE415"/><path fill-rule="evenodd" clip-rule="evenodd" d="M36.128 12.36h4.626l-.382 2.217-4.762.665.518-2.881Zm6.2-.28-.5 2.78c-.104.575-.694.886-1.301.974l-5.039.695c-.056.007-.117.014-.126.068l-.377 2.113h6.181l-.231 1.292h-6.487c-.645 0-1.115-.436-1.012-1.012l1.225-6.947c.101-.56.69-.977 1.322-.977h5.338c.642.003 1.11.439 1.008 1.014Zm47.83 0-.502 2.78c-.103.575-.693.886-1.3.974l-5.039.695c-.056.007-.117.014-.126.068l-.378 2.113h6.182l-.232 1.292h-6.486c-.645 0-1.116-.436-1.013-1.012l1.226-6.947c.1-.56.689-.977 1.322-.977h5.338c.64.003 1.11.439 1.008 1.014Zm-6.203.28h4.626l-.382 2.217-4.762.665.518-2.881Z" fill="#FCE415"/></g><defs><clipPath id="a"><path fill="#fff" d="M0 0h110v32H0z"/></clipPath></defs></svg>