<svg width="24" height="24" fill="none" xmlns="http://www.w3.org/2000/svg"><path d="M19.667 11.667H17.47l1.431-1.431a.333.333 0 0 0-.471-.472l-1.902 1.903h-3.724l2.633-2.633h2.69a.333.333 0 0 0 0-.667h-2.023l1.552-1.552a.334.334 0 0 0-.472-.472l-1.552 1.552V5.872a.333.333 0 0 0-.666 0v2.69l-2.634 2.633V7.471l1.903-1.902a.334.334 0 0 0-.472-.471l-1.43 1.43V4.334a.333.333 0 1 0-.667 0V6.53l-1.431-1.431a.333.333 0 0 0-.472.471l1.903 1.902v3.724L9.034 8.562v-2.69a.333.333 0 1 0-.667 0v2.023L6.815 6.343a.333.333 0 0 0-.472.472l1.552 1.552H5.872a.333.333 0 1 0 0 .667h2.69l2.633 2.633H7.471L5.57 9.764a.333.333 0 0 0-.471.472l1.43 1.43H4.334a.333.333 0 1 0 0 .667H6.53l-1.431 1.431a.333.333 0 1 0 .471.472l1.902-1.903h3.724l-2.633 2.633h-2.69a.333.333 0 0 0 0 .667h2.023l-1.552 1.552a.333.333 0 0 0 .472.472l1.552-1.552v2.023a.333.333 0 0 0 .667 0v-2.69l2.633-2.633v3.724L9.764 18.43a.333.333 0 0 0 .472.471l1.43-1.43v2.195a.333.333 0 0 0 .667 0V17.47l1.431 1.431a.333.333 0 0 0 .472-.471l-1.903-1.902v-3.724l2.633 2.633v2.69a.333.333 0 0 0 .667 0v-2.023l1.552 1.552a.334.334 0 0 0 .472-.472l-1.552-1.552h2.023a.333.333 0 0 0 0-.666h-2.69l-2.633-2.634h3.724l1.902 1.903a.333.333 0 0 0 .471-.472l-1.43-1.43h2.195a.333.333 0 0 0 0-.667Z" fill="#23225C"/></svg>