<svg width="44" height="32" fill="none" xmlns="http://www.w3.org/2000/svg"><path d="M14.448 11.355v-.5c-.472-.1-.505-.446-.453-.848.065-.486.106-.975.167-1.46.051-.392.227-.547.616-.547h2.45c.39 0 .568.152.616.543.066.52.121 1.041.167 1.564.044.47-.021.57-.453.75v.493h.715c.672 0 1.157.323 1.322.968.142.538.23 1.09.264 1.645.044.814.025 1.633.008 2.45-.017.78.214 1.506.417 2.243.142.511.239 1.035.333 1.558a.271.271 0 0 0 .203.25c.774.292 1.072 1.113.675 1.841-.188.347-.387.689-.587 1.03a1.259 1.259 0 0 1-1.139.664h-7.53a1.255 1.255 0 0 1-1.147-.666c-.2-.334-.399-.68-.588-1.026-.397-.726-.095-1.543.667-1.85a.342.342 0 0 0 .19-.188c.182-.732.368-1.464.516-2.203a11.6 11.6 0 0 0 .243-1.7c.04-.823-.025-1.651.023-2.474.04-.556.138-1.106.292-1.642.156-.575.644-.89 1.243-.897l.77.002Zm3.083 9.79V15.5h-3.056v5.647l3.056-.002Zm-3.605-9.253c-.608-.063-.916.115-1.055.675a7.446 7.446 0 0 0-.209 1.394c-.034.73-.036 1.463 0 2.192.048 1.038-.25 2-.54 2.976-.117.397-.176.811-.263 1.22 1.027.16 1.037.151 1.487.627.174.184.353.21.584.163l-.004-9.247Zm4.161-.007v9.343c.207-.084.417-.104.525-.221.39-.426.833-.682 1.428-.628.021 0 .045-.019.13-.054-.13-.524-.23-1.064-.397-1.583a8.039 8.039 0 0 1-.417-2.787c.026-.661.03-1.325 0-1.985a7.467 7.467 0 0 0-.204-1.37c-.15-.59-.43-.76-1.065-.715Zm-3.623 3.061h3.071v-3.053h-3.071v3.053Zm-.774 8.514h4.619v-1.764h-4.62v1.764Zm3.629-14.923h-2.634l-.19 1.768h3c.005-.09.005-.18 0-.27l-.176-1.498Zm-4.157 14.937v-1.815a.272.272 0 0 0-.042-.166c-.29-.317-.569-.658-1.075-.592-.144.018-.292 0-.439 0-.592.021-.939.593-.666 1.119.186.379.4.744.639 1.092a.924.924 0 0 0 .537.347c.33.055.678.015 1.046.015Zm5.678 0c.372 0 .719.035 1.054-.015.2-.035.38-.144.505-.305.259-.375.488-.77.686-1.18a.75.75 0 0 0-.639-1.067 6.16 6.16 0 0 0-.722 0c-.318.017-.878.474-.881.728-.007.601 0 1.203 0 1.839h-.003Zm-1.818-12.62h-2.026v.488h2.026v-.488Zm21.405 5.409-1.012-.26.5-4.956h5.105v1.169h-4.033l-.3 2.707c.182-.105.412-.203.69-.294a3.16 3.16 0 0 1 .97-.137c.46 0 .873.08 1.238.24.364.154.674.378.93.67.26.291.458.642.594 1.052.137.41.206.868.206 1.374 0 .479-.067.918-.199 1.32a2.967 2.967 0 0 1-.58 1.052c-.26.296-.589.527-.985.69-.392.165-.855.247-1.388.247-.401 0-.781-.055-1.141-.164a2.94 2.94 0 0 1-.957-.513 2.778 2.778 0 0 1-.684-.861 3.457 3.457 0 0 1-.328-1.217h1.203c.054.373.164.688.328.943s.378.45.643.581c.268.128.58.192.936.192.3 0 .568-.053.8-.158.232-.104.428-.255.588-.45.16-.197.28-.434.362-.712.087-.278.13-.59.13-.936a2.84 2.84 0 0 0-.13-.875 2.002 2.002 0 0 0-.39-.704 1.705 1.705 0 0 0-.622-.465 1.996 1.996 0 0 0-.847-.171c-.424 0-.745.057-.964.17a3.682 3.682 0 0 0-.663.466Z" fill="#23225C"/></svg>