<svg width="42" height="24" fill="none" xmlns="http://www.w3.org/2000/svg"><path d="M13.427 12.678h1.806a2.484 2.484 0 0 0 2.484-2.484V8.162h-1.355v2.032a1.13 1.13 0 0 1-1.129 1.129h-1.806V8.162h-1.355v3.161H9.137V8.162H7.782v7.677h1.355v-3.161h2.935v3.161h1.355v-3.161ZM8.46 19a.677.677 0 1 0 0-1.355.677.677 0 0 0 0 1.355Zm4.288 0a.677.677 0 1 0 0-1.355.677.677 0 0 0 0 1.355ZM8.46 6.355A.677.677 0 1 0 8.46 5a.677.677 0 0 0 0 1.355Zm4.288 0a.677.677 0 1 0 0-1.355.677.677 0 0 0 0 1.355Zm4.292 0a.677.677 0 1 0 0-1.355.677.677 0 0 0 0 1.355Zm13.282.692h1.279l3.26 8.114 3.254-8.114H39.4L35.353 17h-.998l-4.033-9.953Zm-.417 0h1.128l.185 6.07V17h-1.313V7.047Zm8.778 0h1.127V17h-1.312v-3.883l.185-6.07Z" fill="#23225C"/></svg>