<svg width="36" height="24" fill="none" xmlns="http://www.w3.org/2000/svg"><g clip-path="url(#a)" fill="#23225C"><path d="M10.397 8.264V5.495c0-.146-.084-.153-.194-.159-.602-.03-.602-.03-.602-.648 0-.688 0-.688.688-.688h3.698c.337 0 .409.072.413.413 0 .183.003.366 0 .55-.006.289-.084.364-.377.374-.419.016-.419.016-.419.433v2.475c.103.007.19.018.275.018h1.2c.898.01 1.45.555 1.456 1.453.007 1.299 0 2.599 0 3.898v3.9c0 1.074-.289 1.45-1.338 1.719v.337c0 .36-.069.428-.418.43h-.775c-.332 0-.403-.075-.406-.417v-.364h-3.199v.389c-.005.31-.08.39-.38.391h-.85c-.283 0-.363-.086-.368-.378v-.384c-.202-.058-.385-.088-.55-.164-.537-.254-.785-.704-.786-1.285-.004-2.707-.009-5.416.002-8.123.005-.855.568-1.389 1.428-1.401.491-.008.98 0 1.502 0ZM8.001 13.72v3.973c0 .667.293.969.951.97h6.096c.65 0 .95-.303.95-.947v-7.97c0-.643-.304-.944-.951-.944H8.95c-.647 0-.949.3-.95.945a2307.83 2307.83 0 0 0 0 3.973Zm5.041-5.47V5.353h-2.08V8.25h2.08Zm-2.877-3.467h3.67c.062-.177.013-.247-.163-.246-1.115.004-2.23.004-3.346 0-.177 0-.223.072-.16.246Zm-.572 14.749.268-.212c-.081-.04-.162-.11-.245-.114-.1-.005-.286-.085-.268.13.007.06.135.11.245.196Zm4.795 0 .271-.213c-.082-.04-.162-.11-.246-.113-.098-.007-.281-.086-.265.13.005.06.132.11.241.196Z"/><path d="M12.264 13.723v3.92c0 .084.025.185-.014.245-.058.094-.16.217-.245.219-.086.001-.192-.12-.252-.212-.04-.059-.015-.162-.015-.245V9.81c0-.35.073-.481.271-.462.295.028.254.259.254.455.002 1.306.002 2.613 0 3.92Zm-2.662-.004v-3.37c0-.084-.024-.186.015-.245.061-.092.166-.214.251-.213.086 0 .191.123.25.216.04.06.017.161.017.244v6.767c0 .339-.078.477-.27.476-.19 0-.263-.138-.263-.482V13.72Zm4.263-.022v-3.321c0-.083-.026-.185.011-.246.063-.1.166-.238.254-.239.088-.001.187.138.257.235.033.043.011.128.011.195v6.964c-.004.172-.08.3-.262.301-.182.001-.266-.124-.268-.296-.004-.383 0-.766 0-1.148l-.003-2.445Z"/></g><path d="M35.349 15.96V17h-6.515v-.91l3.26-3.63c.402-.446.712-.824.93-1.134a3.54 3.54 0 0 0 .465-.84c.091-.251.137-.507.137-.766 0-.328-.068-.625-.205-.889a1.537 1.537 0 0 0-.588-.643c-.26-.159-.574-.239-.943-.239-.442 0-.812.087-1.108.26a1.61 1.61 0 0 0-.656.71 2.414 2.414 0 0 0-.219 1.054h-1.264c0-.56.123-1.074.369-1.538a2.72 2.72 0 0 1 1.093-1.108c.483-.278 1.078-.417 1.785-.417.629 0 1.166.112 1.613.335.447.219.788.529 1.025.93.242.396.363.861.363 1.394 0 .292-.05.588-.15.889a4.51 4.51 0 0 1-.404.889 6.897 6.897 0 0 1-.595.875c-.223.287-.462.57-.718.847l-2.666 2.892h4.99Z" fill="#23225C"/><defs><clipPath id="a"><path fill="#fff" transform="translate(7.46 4)" d="M0 0h9.079v16H0z"/></clipPath></defs></svg>