<svg width="36" height="24" fill="none" xmlns="http://www.w3.org/2000/svg"><g clip-path="url(#a)" fill="#23225C"><path d="M12.713 18H8.314c-1.07 0-1.925-.543-2.258-1.473-.13-.366-.176-.767-.231-1.156-.125-.878-.231-1.757-.342-2.635a3.114 3.114 0 0 1 .708-2.462 94.4 94.4 0 0 1 2.79-3.154c.706-.77 1.613-1.116 2.653-1.12 1.704 0 3.41 0 5.118.004 1.093.004 1.801.723 1.801 1.816v8.995c0 .581-.298 1.01-.805 1.14-.152.034-.309.05-.466.045h-4.57Zm.04-.55h4.603c.44 0 .641-.197.642-.637V7.777c0-.745-.472-1.22-1.213-1.227a744.512 744.512 0 0 0-5.177 0c-.876 0-1.638.298-2.23.947a116.91 116.91 0 0 0-2.727 3.076c-.541.636-.733 1.397-.61 2.235.141.963.266 1.93.38 2.896.133 1.127.814 1.745 1.951 1.745l4.38.002Z"/><path d="M11.994 12.546H7c-.414 0-.49-.082-.449-.501a1.77 1.77 0 0 1 .427-1.022c.939-1.07 1.877-2.141 2.836-3.194a2.242 2.242 0 0 1 1.699-.736c1.76-.009 3.52-.005 5.277 0 .415 0 .66.246.662.665.005 1.478.005 2.956 0 4.434 0 .27-.092.35-.386.352h-3.048l-2.024.002Zm-4.87-.563h9.772a.695.695 0 0 0 .01-.076c0-1.361 0-2.724.005-4.088 0-.172-.086-.184-.217-.184h-5.071a1.967 1.967 0 0 0-1.563.716c-.218.253-.443.499-.665.748-.65.736-1.302 1.467-1.948 2.208a1.237 1.237 0 0 0-.324.676Zm5.16 3.834H7.54c-.32 0-.46-.089-.452-.284.008-.194.143-.262.452-.262h9.467c.31 0 .44.082.44.272s-.131.274-.44.274h-4.723Zm4.092-2.181h.755c.199 0 .314.107.315.27.001.163-.112.27-.314.27-.51.006-1.02.006-1.53 0-.211 0-.334-.115-.327-.28.008-.166.13-.259.328-.262l.773.002Z"/><path d="M12.57 8.448a1.25 1.25 0 0 1-.14.231c-.521.528-1.045 1.052-1.572 1.574-.144.142-.298.144-.414.026-.117-.119-.11-.27.033-.415.518-.522 1.034-1.045 1.565-1.554a.46.46 0 0 1 .344-.081c.067.01.119.137.184.219Zm-1.983.83c-.051-.041-.151-.082-.184-.157a.299.299 0 0 1 .012-.259 5.42 5.42 0 0 1 .619-.615c.06-.05.234-.033.307.02.073.053.114.234.076.278-.214.245-.456.475-.692.706-.02.02-.065.013-.138.027Z"/></g><path d="m30.427 12.263-1.012-.26.5-4.956h5.105v1.169h-4.033l-.3 2.707c.182-.105.412-.203.69-.294.283-.091.606-.137.97-.137.46 0 .873.08 1.238.24.364.154.674.378.93.67.26.291.458.642.594 1.052.137.41.206.868.206 1.374 0 .479-.067.918-.199 1.32a2.967 2.967 0 0 1-.58 1.052c-.26.296-.589.527-.985.69-.392.165-.855.247-1.388.247-.401 0-.781-.055-1.141-.164a2.94 2.94 0 0 1-.957-.513 2.778 2.778 0 0 1-.684-.861 3.457 3.457 0 0 1-.328-1.217h1.203c.055.373.164.688.328.943s.378.45.643.581c.268.128.58.192.936.192.3 0 .568-.053.8-.158.232-.104.428-.255.588-.45.16-.197.28-.434.362-.712.087-.278.13-.59.13-.936a2.84 2.84 0 0 0-.13-.875 2.002 2.002 0 0 0-.39-.704 1.705 1.705 0 0 0-.622-.465 1.996 1.996 0 0 0-.847-.171c-.424 0-.745.057-.964.17a3.682 3.682 0 0 0-.663.466Z" fill="#23225C"/><defs><clipPath id="a"><path fill="#fff" transform="translate(5.455 6)" d="M0 0h13.091v12H0z"/></clipPath></defs></svg>