<svg width="38" height="24" fill="none" xmlns="http://www.w3.org/2000/svg"><path d="M14.981 4.069c-2.025.337-2.925 2.7-1.687 4.275l.169.225v.056c0 .056-.563 1.575-1.238 3.431-.675 1.8-1.181 3.319-1.181 3.319s-.45-.113-1.013-.281c-.9-.281-1.012-.281-1.237-.281-.281 0-.506.056-.675.28-.113.113-.225.282-1.069 2.307-1.012 2.363-.956 2.25-.787 2.419l.056.056h8.887c.057 0 .113-.056.17-.113.055-.056.055-.168.055-1.293 0-1.069 0-1.238-.056-1.35-.056-.169-.281-.45-.45-.563-.056-.056-.506-.169-.9-.281-.45-.112-.787-.225-.844-.281 0 0 .507-1.519 1.182-3.319l1.18-3.319h.17c.73-.056 1.406-.45 1.856-1.068.562-.9.619-2.082.056-2.982-.169-.225-.506-.618-.787-.787a2.442 2.442 0 0 0-1.857-.45Zm.957.675c.337.112.562.225.787.506.281.281.394.45.506.731.338.9-.056 1.969-.9 2.419-.393.169-.506.225-.956.225-.337 0-.45 0-.619-.056a1.873 1.873 0 0 1-1.293-1.294c-.057-.281-.113-.675-.057-.956.057-.281.282-.731.45-.956a2.238 2.238 0 0 1 2.082-.62ZM14.25 9.019c.113.056.281.112.338.169.112.056.168.056.168.112 0 0-2.137 6.019-2.306 6.469 0 .056 0 .056-.394-.056-.225-.057-.393-.113-.393-.17 0-.055 2.362-6.58 2.362-6.58.056 0 .113.056.225.056Zm-2.812 7.144c3.318 1.012 3.093.9 3.206 1.012l.112.113V19.2H6.994s1.519-3.6 1.575-3.656c.056-.113.225-.169.337-.169 0 .056 1.182.394 2.532.788ZM32.84 7.929 29.545 17h-1.347l3.794-9.953h.868l-.02.882ZM35.602 17 32.3 7.929l-.02-.882h.867L36.956 17h-1.353Zm-.171-3.685v1.08h-5.592v-1.08h5.592Z" fill="#23225C"/></svg>