<svg width="33" height="20" fill="none" xmlns="http://www.w3.org/2000/svg"><path fill-rule="evenodd" clip-rule="evenodd" d="M13.143 19.02c1.668-2.343 2.696-5.544 2.696-9.074 0-1.723-.245-3.367-.69-4.872l11.985-.036a63.81 63.81 0 0 0-.416-.81 22.333 22.333 0 0 1-.775-1.59c-.303-.717-.79-1.028-1.557-1.076-3.641-.239-7.281-.44-10.92-.211-.25-.39-.519-.76-.802-1.106 3.815-.362 7.63-.357 11.425.24.646.101 1.367.56 1.789 1.07.8.97 1.47 2.054 2.135 3.128l.165.266c.316.51.603.756.883.551.1-.25.178-.506.25-.739.138-.453.25-.816.44-.865.53-.134 1.198.084 1.746.308.227.094.411.59.388.887-.015.203-.393.475-.655.546-.384.105-.784.155-1.215.21a26.41 26.41 0 0 0-.575.076c.268.147.532.28.79.41.583.293 1.13.568 1.589.948.422.35.8 1.02.814 1.555.06 2.25.048 4.503.035 6.756l-.01 1.777a6.597 6.597 0 0 1-.108.974c-.221 1.425-.381 1.565-1.82 1.592-.138.002-.277.008-.417.013-.386.015-.772.03-1.15-.018-.328-.042-.803-.183-.916-.422-.388-.812-1.018-.761-1.7-.707l-.105.009c-4.426.339-8.867.409-13.299.21Zm12.781-7.806c-.136-.021-.286-.045-.457-.062h.003c1.088-1.702 2.21-3.025 4.13-3.382.883-.164 1.368.36 1.61 1.087.247.743-.1 1.304-.844 1.502a71.593 71.593 0 0 1-3.792.89c-.188.04-.392.007-.649-.034ZM5.811 18.716a.723.723 0 0 0 1.056 0l4.754-4.98a.81.81 0 0 0 0-1.107.723.723 0 0 0-1.057 0l-3.478 3.644V1.728c0-.432-.334-.783-.747-.783-.412 0-.747.35-.747.783v14.545L2.114 12.63a.723.723 0 0 0-1.056 0 .81.81 0 0 0 0 1.107l4.753 4.98Z" fill="#C2C5C8"/></svg>