<svg width="24" height="25" fill="none" xmlns="http://www.w3.org/2000/svg"><path d="M11.969 20.5H3.12c-1.428-.001-2.265-.843-2.265-2.274V6.773c0-1.436.835-2.273 2.266-2.273h17.763c1.421 0 2.259.84 2.259 2.274v11.452c0 1.434-.836 2.273-2.267 2.273l-8.908.001Zm-2.344-6.394c.825-1.35.738-2.533-.229-3.397a2.4 2.4 0 0 0-3.046-.114c-.441.33-.752.805-.878 1.342-.192.794.02 1.508.5 2.13-.02.04-.022.053-.03.06l-.13.108a3.453 3.453 0 0 0-1.437 2.447c-.09.726.157 1.02.885 1.022h4.94c.921 0 1.163-.274 1.016-1.188 0-.045-.02-.09-.029-.13-.199-.975-.733-1.718-1.562-2.28ZM12 8.601h6.72c.115.007.231.007.347 0a.656.656 0 0 0 .582-.597.634.634 0 0 0-.47-.661 2.082 2.082 0 0 0-.517-.047H5.336c-.14 0-.302-.035-.412.025-.191.103-.418.234-.508.413-.221.44.13.866.694.866 2.297.003 4.594.003 6.891.001Zm4.523 5.002h-2.298c-.496 0-.775.24-.775.647 0 .407.273.646.743.646 1.566.007 3.133.007 4.7 0 .453 0 .75-.274.748-.646-.001-.373-.297-.639-.752-.646-.785-.004-1.574 0-2.362 0h-.004Zm0-1.508h2.402c.428 0 .717-.268.72-.638.002-.37-.286-.646-.712-.646a486.074 486.074 0 0 0-4.77 0c-.445 0-.708.258-.71.646 0 .388.272.646.739.646a349.03 349.03 0 0 1 2.332-.008h-.001Zm-.679 4.304H14.21c-.467 0-.746.24-.752.633-.007.393.27.664.726.668 1.112.008 2.225.008 3.339 0 .44 0 .74-.301.726-.676-.014-.375-.305-.622-.735-.625-.558-.004-1.115 0-1.67 0Z" fill="#23225C"/><path d="M9.798 16.376H5.823c.12-.776 1.003-1.442 1.93-1.47.929-.03 1.853.616 2.045 1.47Zm-.905-3.864a1.093 1.093 0 1 1-2.186-.023 1.093 1.093 0 0 1 2.186.023Z" fill="#23225C"/></svg>