<svg width="40" height="40" fill="none" xmlns="http://www.w3.org/2000/svg"><path d="M0 8a8 8 0 0 1 8-8h24a8 8 0 0 1 8 8v24a8 8 0 0 1-8 8H8a8 8 0 0 1-8-8V8Z" fill="#23225C"/><path d="M13.333 27.778c0 1.222 1 2.222 2.223 2.222h8.888c1.223 0 2.223-1 2.223-2.222V14.444H13.333v13.334Zm2.74-7.911 1.571-1.573L20 20.65l2.355-2.356 1.573 1.573-2.356 2.355 2.356 2.356-1.573 1.572L20 23.794l-2.356 2.356-1.572-1.572 2.356-2.356-2.356-2.355Zm7.816-8.756L22.778 10h-5.556l-1.11 1.111h-3.89v2.222h15.556v-2.222h-3.89Z" fill="#fff"/></svg>