<svg width="24" height="25" fill="none" xmlns="http://www.w3.org/2000/svg"><path d="M11.996 18.501h2.82c.217 0 .173-.153.173-.277V15.02c0-.095 0-.188.007-.281.041-.448.353-.742.769-.73.415.014.713.326.724.775.007.271 0 .543 0 .815v3.457c0 .683-.262.943-.955.944h-3.538v.638c0 .63-.395.947-1.007.825l-7.214-1.438c-.572-.114-.775-.354-.775-.948V4.465c0-.679.275-.954.953-.954H15.56c.666 0 .932.268.934.937v4.244c0 .516-.356.852-.83.803a.695.695 0 0 1-.65-.66c-.03-.317-.02-.637-.02-.954V5.267c0-.167-.03-.258-.228-.257-1.836.005-3.672.005-5.508 0-.06.006-.12.015-.179.029.122.05.182.082.245.102.663.202 1.326.402 1.99.602.522.158.683.37.683.913v11.845Z" fill="#8E8997"/><path d="M18.345 12.506h-4.037c-.462 0-.774-.279-.803-.693a.721.721 0 0 1 .61-.784 2.22 2.22 0 0 1 .364-.024h3.839l.036-.07-.603-.605c-.109-.108-.217-.208-.314-.325a.748.748 0 0 1 .037-1.04.732.732 0 0 1 1.019 0c.508.485.998.988 1.496 1.484.253.251.51.498.76.759.332.354.338.76 0 1.1-.728.743-1.463 1.478-2.205 2.207-.333.325-.777.325-1.085.018-.308-.307-.292-.751.03-1.084.286-.295.588-.575.883-.861l-.027-.082Z" fill="#8E8997"/></svg>