<svg width="32" height="20" fill="none" xmlns="http://www.w3.org/2000/svg"><path fill-rule="evenodd" clip-rule="evenodd" d="M12.304 19.02C13.972 16.676 15 13.475 15 9.945c0-1.723-.245-3.367-.69-4.872l11.984-.036a63.81 63.81 0 0 0-.416-.81 22.342 22.342 0 0 1-.774-1.59c-.303-.717-.79-1.028-1.557-1.076-3.642-.239-7.281-.44-10.92-.211-.251-.39-.52-.76-.803-1.106 3.816-.362 7.63-.357 11.426.24.646.101 1.367.56 1.788 1.07.8.97 1.471 2.054 2.136 3.128l.165.266c.315.51.603.756.882.551.1-.25.179-.506.25-.739.139-.453.25-.816.44-.865.53-.134 1.199.084 1.746.308.227.094.412.59.389.887-.016.203-.393.475-.655.546-.385.105-.784.155-1.215.21a25.62 25.62 0 0 0-.575.076c.267.147.532.28.79.41.583.293 1.13.568 1.588.948.423.35.8 1.02.815 1.555.06 2.25.047 4.503.034 6.756l-.008 1.777a6.597 6.597 0 0 1-.11.974c-.22 1.425-.38 1.565-1.818 1.592-.14.002-.279.008-.418.013-.386.015-.773.03-1.15-.018-.328-.042-.803-.183-.917-.422-.388-.812-1.017-.761-1.698-.707l-.107.009a109.69 109.69 0 0 1-13.298.21Zm12.78-7.806c-.135-.021-.285-.045-.456-.062h.003c1.087-1.703 2.21-3.025 4.128-3.383.884-.164 1.369.36 1.611 1.087.247.743-.1 1.304-.845 1.502a71.59 71.59 0 0 1-3.791.89c-.189.04-.392.007-.65-.034ZM4.972 1.175a.723.723 0 0 1 1.056 0l4.753 4.98a.81.81 0 0 1 0 1.107.723.723 0 0 1-1.056 0L6.247 3.617v14.546c0 .432-.335.782-.747.782s-.747-.35-.747-.782V3.617L1.275 7.262a.723.723 0 0 1-1.056 0 .81.81 0 0 1 0-1.107l4.753-4.98Z" fill="#C2C5C8"/></svg>