<svg width="40" height="40" fill="none" xmlns="http://www.w3.org/2000/svg"><path d="M0 8a8 8 0 0 1 8-8h24a8 8 0 0 1 8 8v24a8 8 0 0 1-8 8H8a8 8 0 0 1-8-8V8Z" fill="#23225C"/><path d="M19.997 30a10 10 0 1 1 .006-20 10 10 0 0 1-.006 20Zm-2.322-11.585v3.718c0 .61.246.855.852.857H21.4c.69 0 .918-.226.919-.914v-3.341c0-.238.052-.345.31-.325.257.02.54 0 .812.008.329.011.595-.079.76-.388.167-.31.109-.592-.11-.868-.27-.342-.52-.7-.78-1.053-.865-1.164-1.727-2.328-2.587-3.49-.283-.381-.91-.433-1.17-.1a3418.224 3418.224 0 0 0-3.652 4.675.79.79 0 0 0-.091.879c.134.286.392.346.68.343.381-.005.764 0 1.184 0Zm.135 6.937h4.363v-1.334H17.81v1.334Zm3.804 1.05h-3.222v1.323h3.227l-.005-1.322Z" fill="#fff"/><path d="M20.942 21.602h-1.87c-.007-.116-.018-.226-.018-.336v-3.312c0-.692-.217-.908-.918-.915-.091 0-.183-.01-.349-.018l2.305-2.947 2.189 2.966h-.563c-.508.009-.773.265-.774.775v3.436l-.002.35Z" fill="#fff"/></svg>