<svg width="18" height="24" fill="none" xmlns="http://www.w3.org/2000/svg"><path d="M.398 4.225a.859.859 0 0 1 .33-1.185c.393-.234.798-.451 1.214-.65a.818.818 0 0 1 1.079.273c.282.417.532.858.834 1.35L1.167 5.517c-.28-.47-.54-.872-.769-1.293Zm16.739 17.66c.01.336-.066.67-.222.97a2.01 2.01 0 0 1-.668.746c-.364.306-1.265.397-1.265.397H2.291c-1.457 0-2.285-.822-2.286-2.25V8.442C0 7.492.387 6.808 1.245 6.357 2.298 5.8 3.331 5.2 4.383 4.634c.27-.137.509-.326.703-.557.193-.23.337-.498.422-.785.188-.609.392-1.213.595-1.818C6.41.563 7.106.021 8.076.014a460.03 460.03 0 0 1 6.95 0c1.215.013 2.11.917 2.11 2.128.009 6.58.009 13.161 0 19.742ZM15.016 3.08c.01-.6-.443-1.012-1.144-1.013a843.929 843.929 0 0 0-4.93 0c-.673 0-1.135.408-1.14.981-.007.612.43 1.003 1.143 1.008h4.931c.692-.005 1.13-.389 1.14-.976ZM3.444 14.754c.04.2.139.385.284.53 1.007.99 2.003 1.988 3.01 2.967.103.102.227.18.364.232.364.13.68.014.95-.252 2.006-1.984 4.012-3.967 6.02-5.95a2.11 2.11 0 0 0 .134-.15.852.852 0 0 0-.405-1.319.893.893 0 0 0-.945.25 6780.201 6780.201 0 0 1-5.378 5.314c-.03.03-.053.066-.1.12a1.208 1.208 0 0 0-.09-.12 1252.9 1252.9 0 0 0-2.319-2.292c-.373-.367-.872-.39-1.244-.062a.956.956 0 0 0-.28.522v.21Z" fill="#8E8997"/></svg>