<svg width="21" height="21" fill="none" xmlns="http://www.w3.org/2000/svg"><path d="M9.282 12.218C7.372 10.31 6.942 8.4 6.844 7.636a.686.686 0 0 1 .197-.574l1.545-1.544a.69.69 0 0 0 .097-.854L6.223.844a.69.69 0 0 0-.893-.25l-3.949 1.86a.686.686 0 0 0-.379.684c.207 1.966 1.064 6.798 5.812 11.546 4.749 4.749 9.58 5.606 11.546 5.812a.686.686 0 0 0 .685-.379l1.86-3.948a.69.69 0 0 0-.25-.893l-3.82-2.459a.69.69 0 0 0-.853.097l-1.544 1.545a.685.685 0 0 1-.574.197c-.764-.098-2.674-.529-4.582-2.438Z" fill="#545158"/><path d="M16.862 11.19a.69.69 0 0 1-.69-.69A5.178 5.178 0 0 0 11 5.328a.69.69 0 0 1 0-1.38 6.559 6.559 0 0 1 6.552 6.552.69.69 0 0 1-.69.69Z" fill="#545158"/><path d="M20.31 11.19a.69.69 0 0 1-.69-.69A8.63 8.63 0 0 0 11 1.88.69.69 0 0 1 11 .5c5.52.006 9.994 4.48 10 10a.69.69 0 0 1-.69.69Z" fill="#545158"/></svg>