<svg width="138" height="40" fill="none" xmlns="http://www.w3.org/2000/svg"><g clip-path="url(#a)"><path d="M11.53 16.56c1.487.604 2.92 1.323 4.406 1.924 1.188.362 1.585 1.025 1.982 1.282.094.059.167.106.278.115.052.006.227-.027.245-.083.096-.318-.365-1.052-.467-1.232-.558-.981-1.29-1.789-1.91-2.737-.607-.935-1.197-1.913-1.988-2.703-1.019-1.017-2.178-1.497-3.614-1.497-1.506 0-2.201.038-3.66.68-.923.407-1.776.908-2.634 1.424-.599.36-1.118.86-1.521 1.435-.637.92-.84 1.925-.855 3.313-.012 1.06 4.052 1.727 5.006 1.895 2.324.412 4.733.633 7.089.769.58.032 1.165.059 1.748.08.444.014.897.123 1.329.023.198-.044.473-.203.455-.407-.067-.792-.178-.763-1.2-1.164a15.932 15.932 0 0 0-1.495-.548 32.115 32.115 0 0 0-3.43-.972c-1.31-.295-2.619-.501-3.964-.501-.193 0-.812-.024-.967.067-.315.183-.484.26-.84.363-.31.091-.625.162-.94.233-.114-.646-.255-1.294-.336-1.945-.076-.593-.056-.985.446-1.303.106-.065.143-.056.251-.044 2.117.218 4.312.527 6.42.578a.2.2 0 0 1 .175.156c.047.277-.005.512-.008.798ZM.645 20.395C.54 19.536.46 18.666.487 17.8c.023-.784.137-1.562.423-2.296.493-1.273 1.413-2.18 2.548-2.89h.006a66.489 66.489 0 0 1 2.313-1.274c.738-.392 1.48-.78 2.215-1.184.19-.104.415-.236.578-.384.027-.023.138-.132.126-.176-.009-.036-.108-.071-.137-.08a1.958 1.958 0 0 0-.508-.07h-.006c-.823-.063-3.174-.337-3.159-1.507.003-.297.237-.59.444-.784.277-.259.633-.465.992-.589.237-.083.49-.133.742-.133 2.33 0 2.697.192 4.516 1.427 2.581-2.32 5.165-4.639 7.746-6.958l.008-.009.003-.009c.22-.127.517-.206.762-.265.391-.094.797-.156 1.197-.21.526-.07 1.054-.12 1.582-.164.634-.05 1.27-.092 1.907-.121a109.97 109.97 0 0 1 4.522-.118 170.473 170.473 0 0 1 9.795.215c1.439.074 2.881.171 4.317.304.62.056 1.241.12 1.86.197.531.065 1.06.139 1.588.227.424.07.847.15 1.261.256.298.074.622.162.9.29.178.108.166.182-.033.22a236.357 236.357 0 0 0-9.692-.421 177.212 177.212 0 0 0-7.298-.03c-1.13.02-2.263.053-3.393.106-1.022.042-2.05.104-3.074.192h-.012c-.98 0-1.967.041-2.942.165-.757.097-1.513.245-2.237.483-1.147.378-2.12.943-2.963 1.819-.718.748-1.276 1.641-1.787 2.543-.291.513-.572 1.034-.855 1.556-.286.522-.572 1.04-.873 1.553 3.679.15 7.354.304 11.032.454.932-.504 3.41-.525 4.654-.513 1.156.012 2.344.174 3.5.23 1.265.062 2.529.138 3.79.218 2.137.139 4.274.295 6.414.415.887.05 1.775.095 2.662.121.365.01.733.018 1.1.015.304 0 .605-.006.909-.02h.006c.467-.006.934-.004 1.398.023.336.018.674.044 1.007.097.202.033.435.074.625.15.117.048.271.13.274.278 0 .147-.151.232-.268.283-.19.08-.42.126-.625.162a9.677 9.677 0 0 1-1.013.115 22.9 22.9 0 0 1-1.41.05c-6.478.038-12.96 0-19.437 0h-2.35a18.964 18.964 0 0 0 .68.91c.458.58.943 1.147 1.439 1.695.266.292.537.577.814.857.73.728 1.676 1.191 2.222 1.769.146.153.29.303.394.486a.919.919 0 0 1 .085.799c-.158.445-.353.244-.628.023-1.331-1.067-2.411-1.4-3.643-2.263-.888-.622-1.7-1.353-2.505-2.08-.861-.779-1.714-1.548-2.642-2.244-2.826.015-5.273.16-7.296.171.12.602.354 1.058.771 1.648.718 1.01 1.422 2.019 2.131 3.05.228.333.473.657.713.978.291.39.583.778.867 1.173.236.327.467.655.686.993.09.304.28.616.443.938.187.374.497 1.055.231 1.453-.155.235-.447.291-.71.297h-.005c-4.957-.206-9.407-.31-13.815-.928l-.012-.003-.008-.003a3.115 3.115 0 0 0-.523-.115 5.347 5.347 0 0 0-.718-.062c-.312-.006-.823.02-1.118.21l-.015.011c0 .003.018.027.018.03.31.465.94.863 1.401 1.11.383.207.78.387 1.182.546a16.199 16.199 0 0 0 2.864.831c.999.153 1.997.286 2.999.413 1.255.159 2.513.303 3.769.442 2.94.32 5.882.6 8.83.845 2.439.204 4.882.38 7.323.513.995.018 1.99.041 2.983.088.7.033 1.402.071 2.1.133.242.024.484.047.726.08.172.023.348.05.52.085.105.024.225.05.327.095.082.035.17.094.17.194 0 .106-.097.162-.182.198a2.02 2.02 0 0 1-.347.094 8.474 8.474 0 0 1-.543.082c-.248.03-.5.053-.748.071-.697.053-1.395.085-2.093.106a91.32 91.32 0 0 1-2.867.038c-6.478-.002-12.956 0-19.434 0-.313.012-.683.062-.964.207-.137.07-.3.191-.315.36-.012.129.067.247.155.335.158.16.394.274.601.354 1.632.33 3.273.601 4.922.822 4.467.595 8.972.813 13.47.937a48.56 48.56 0 0 1 2.45.127c.616.05 1.235.112 1.845.21.225.035.453.076.677.129.17.038.339.085.502.144.17.062.48.189.48.41.002.203-.255.321-.412.386-.146.056-.298.1-.45.138a7.644 7.644 0 0 1-.628.13 23.81 23.81 0 0 1-1.833.233c-.882.082-1.766.139-2.65.183h-8.19c-3.433 0-6.863.147-10.288.356-.292.018-.645.068-.91.198-.082.041-.263.141-.26.253 0 .103.163.195.239.23.26.12.616.168.9.186h.005c2.823.315 5.652.539 8.49.678 2.817.135 5.634.185 8.454.185h.006c.768.02 1.536.044 2.303.077.567.023 1.133.05 1.697.088.204.015.405.03.61.05.149.015.297.03.446.053.094.015.196.033.286.06.08.026.17.07.173.167.003.095-.08.142-.155.168a1.57 1.57 0 0 1-.26.065 6.753 6.753 0 0 1-.414.065c-.193.026-.389.047-.584.068-.564.059-1.127.103-1.69.141-.806.06-1.615.11-2.42.153h-.007c-4.04 0-8.078.003-12.118.003-.044.242-.082.487-.12.731-.09.58-.187 1.147-.338 1.715-.222.834-1.294.734-1.956.731L2.933 39.01c-.671.015-1.603-.575-1.629-1.276L.653 20.455l-.009-.059Z" fill="#FCE415"/><path d="m126.725 30.077-.237 1.3h-1.045l.231-1.3h1.051Zm.146 2.824-.733 4.072h1.918l-.152.867h-4.942l.148-.867h1.948l.695-3.872h-1.419l.172-.87h1.655c.447 0 .768.304.71.67Zm-23.014-2.158-1.121 6.23h2.236l-.149.867-4.423-.003.152-.867 1.086.003 1.089-6.03h-1.845l.167-.869h2.236c.449.003.642.304.572.67Zm-4.335 1.489-.862 4.741h.911l-.149.867h-1.024c-.21 0-.283-.195-.356-.215-.106.038-.167.215-.371.215h-3.293c-.447 0-.756-.298-.686-.663l.887-4.945h1.016l-.844 4.741h2.902l.853-4.741h1.016Zm-6.073.666-.773 4.311c-.065.354-.453.63-.882.63h-3.372c-.444 0-.75-.297-.686-.662l1.276-7.102h1.01l-.388 2.154h3.13c.446.003.75.303.685.669Zm-4.656 4.075h2.899l.695-3.872h-2.908l-.686 3.872Zm22.511-4.072-1.17 6.465c-.067.354-.447.634-.879.634h-4.181l.167-.87h3.918l.233-1.287h-3.112c-.447 0-.75-.298-.686-.663l.771-4.312c.067-.353.449-.633.881-.633h3.378c.444 0 .748.3.68.666Zm-4.656 4.075h2.899l.695-3.872h-2.911l-.683 3.872Zm16.702-4.226-.064.351-2.669-.003-.694 3.873h1.088l-.151.866h-4.593c-.21 0-.277-.192-.353-.215-.105.035-.172.215-.376.215h-3.291c-.446 0-.747-.298-.686-.663l.774-4.312c.067-.353.45-.633.882-.633h3.374c.447 0 .751.3.684.666l-.736 4.075h2.306l.748-4.108c.067-.353.446-.633.881-.633h2.099c.476.003.783.238.777.521Zm-10.732 4.223h2.899l.695-3.872h-2.908l-.686 3.872Zm18.001-4.741h3.372c.45 0 .753.297.683.666l-.759 4.075h.932l-.152.867h-1.025c-.21 0-.28-.195-.353-.215-.105.038-.17.215-.374.215h-3.293c-.447 0-.753-.298-.683-.663l.773-4.312c.062-.353.444-.633.879-.633Zm-.595 4.741h2.899l.694-3.872h-2.907l-.686 3.872Z" fill="#333"/><path d="m41.513 27.693 34.14.015-.277 1.6H41.157l.356-1.615Zm36.384-12.652-.426 2.367h-1.874l.342-1.954h-5.785l-.484 2.714 6.06.881c.75.095 1.367.54 1.235 1.265l-.642 3.474c-.126.699-.818 1.22-1.606 1.22L66.795 25l.289-1.618 7.439.008.481-2.717-6.06-.875c-.748-.094-1.367-.542-1.235-1.264l.624-3.475c.126-.698.859-1.22 1.647-1.22h6.65c.806-.003 1.399.483 1.267 1.202Zm-20.57-1.205h6.65c.806 0 1.404.542 1.276 1.261l-1.486 8.255c-.009.033.02.035.055.035h1.752l-.286 1.618h-1.941c-.365 0-.558-.433-.713-.433-.128.015-.382.433-.72.433h-6.497c-.802 0-1.427-.557-1.299-1.276l1.565-8.673c.123-.698.856-1.22 1.644-1.22Zm-1.232 9.551h5.745l1.425-7.936H57.52l-1.425 7.936Zm33.276 4.306 46.238.015-.275 1.6H89.082l.29-1.615Zm47.348-13.857-.304 1.618h-4.323l-1.425 7.936h5.675l-.213 1.188-.099.428h-6.651c-.802 0-.908-.649-.779-1.368l1.477-8.184h-2.767l.303-1.618 2.756.006 1.299-2.178h1.988l-1.27 2.178 4.333-.006Zm-12.003 1.203-1.804 9.949h-1.892l1.716-9.551h-5.762l-1.702 9.569h-1.916l1.778-9.967c.126-.699.812-1.22 1.6-1.22h6.966c.873.005 1.121.657 1.016 1.22Zm-23.212.377h-6.186l-1.416 7.936h2.122l-.286 1.636h-5.909l.292-1.636h1.72l1.48-8.334c.122-.699.858-1.22 1.646-1.22l5.827.012c.649 0 .958.1.865.733l-.155.873ZM89.95 13.795l-2.561 14.063c-.181 1.14-.905 1.45-1.772 1.45h-7.608l.303-1.618h7.2l.487-2.711-6.125-.018c-.802-.003-1.39-.545-1.26-1.264l1.777-9.893 1.903-.003-1.713 9.545h5.713l1.714-9.542 1.941-.01Zm14.686-5.95h-2.767l-.412 1.3h-2.496l3.062-7.887h2.674l2.879 7.887h-2.56l-.38-1.3Zm-.499-1.706-.832-2.835-.899 2.835h1.731ZM64.532 4.465h1.034c.656 0 1.2-.177 1.208-.817.01-.707-.575-.792-1.147-.792h-1.074l-.02 1.609Zm-2.505 4.68.088-7.887h4.072c1.545 0 3.06.274 3.04 2.193-.015 1.235-.774 1.957-1.936 2.219.642.215 1.036.572 1.352 1.197l1.162 2.278h-2.762L65.764 6.74c-.242-.466-.467-.79-1.033-.79h-.216l-.035 3.195h-2.453Zm70.218-4.68h1.033c.657 0 1.2-.177 1.209-.817.009-.707-.575-.792-1.147-.792h-1.075l-.02 1.609Zm-2.505 4.68.088-7.887h4.072c1.545 0 3.06.274 3.039 2.193-.014 1.235-.773 1.957-1.935 2.219.642.215 1.036.572 1.351 1.197l1.162 2.278h-2.761l-1.279-2.405c-.242-.466-.467-.79-1.034-.79h-.216l-.035 3.195h-2.452Zm-4.017-1.3h-2.768l-.411 1.3h-2.496l3.062-7.887h2.674l2.879 7.887h-2.56l-.38-1.3Zm-.499-1.706-.832-2.835-.899 2.835h1.731Zm-7.848-.221 2.134.645c-.148.598-.382 1.1-.697 1.5a3.02 3.02 0 0 1-1.162.908c-.461.203-1.045.306-1.755.306-.861 0-1.562-.124-2.105-.371-.543-.25-1.007-.69-1.395-1.315-.388-.624-.581-1.429-.569-2.407.014-1.303.373-2.305 1.077-3.006.706-.699 1.693-1.05 2.969-1.05.995 0 1.778.201 2.344.602.564.4.984 1.02 1.25 1.854l-2.158.474c-.073-.239-.149-.413-.23-.525a1.398 1.398 0 0 0-1.162-.577c-.558 0-.984.22-1.285.666-.225.327-.344.846-.353 1.55-.009.875.117 1.47.379 1.795.263.324.637.483 1.119.483.467 0 .823-.13 1.065-.392s.418-.642.534-1.14Zm-29.81-4.66H95l-.02 1.951h-2.496l-.065 5.939h-2.44l.064-5.939h-2.496l.02-1.95Zm-8.825 0h2.28l2.916 4.356.047-4.356h2.31l-.088 7.887h-2.31l-2.901-4.333-.047 4.333h-2.297l.09-7.887Zm-7.961 0h6.54l-.018 1.686h-4.088L73.2 4.199h3.79l-.018 1.61h-3.79l-.017 1.553h4.207l-.02 1.783h-6.66l.088-7.887Z" fill="#FCE415"/><path fill-rule="evenodd" clip-rule="evenodd" d="M45.49 15.451h5.763l-.476 2.77-5.932.832.645-3.602Zm7.725-.35-.625 3.474c-.128.72-.864 1.108-1.62 1.217l-6.277.87c-.07.009-.146.017-.157.085l-.47 2.64h7.701l-.29 1.616h-8.08c-.803 0-1.39-.546-1.261-1.265l1.527-8.684c.125-.699.858-1.22 1.646-1.22h6.65c.8.002 1.384.548 1.256 1.267Zm59.584-.001-.625 3.475c-.128.72-.864 1.108-1.62 1.217l-6.277.87c-.07.009-.146.017-.157.085l-.47 2.64h7.701l-.289 1.616h-8.081c-.803 0-1.39-.546-1.261-1.265l1.527-8.684c.125-.699.858-1.22 1.646-1.22h6.651c.797.002 1.383.548 1.255 1.267Zm-7.728.351h5.763l-.476 2.77-5.932.832.645-3.602Z" fill="#FCE415"/></g><defs><clipPath id="a"><path fill="#fff" transform="translate(.481)" d="M0 0h137.037v40H0z"/></clipPath></defs></svg>