<svg width="32" height="20" fill="none" xmlns="http://www.w3.org/2000/svg"><path fill-rule="evenodd" clip-rule="evenodd" d="M12.303 19.02C13.972 16.677 15 13.476 15 9.945c0-1.722-.245-3.366-.69-4.87l11.984-.036a64.144 64.144 0 0 0-.416-.811c-.288-.555-.552-1.063-.774-1.59-.303-.717-.79-1.028-1.557-1.076-3.641-.238-7.28-.439-10.919-.21-.251-.39-.52-.76-.803-1.106 3.816-.362 7.63-.358 11.425.24.646.1 1.367.559 1.788 1.07.8.97 1.471 2.054 2.136 3.127l.165.267c.315.51.603.755.882.55.1-.249.179-.505.25-.738.139-.453.25-.817.44-.865.53-.135 1.199.083 1.746.308.227.093.412.59.389.886-.016.204-.393.476-.655.547-.385.105-.784.155-1.215.209a25.62 25.62 0 0 0-.575.076c.267.148.532.281.79.41.583.294 1.13.569 1.588.948.423.351.8 1.02.815 1.555.06 2.251.047 4.504.034 6.756l-.008 1.778a6.597 6.597 0 0 1-.11.974c-.22 1.425-.38 1.564-1.818 1.591-.14.003-.279.008-.418.014-.386.015-.773.03-1.15-.018-.328-.043-.803-.184-.917-.422-.388-.812-1.017-.762-1.698-.707l-.107.008c-4.426.34-8.867.409-13.3.21Zm12.782-7.805a7.53 7.53 0 0 0-.457-.062h.003c1.087-1.703 2.21-3.026 4.128-3.383.884-.164 1.369.36 1.611 1.087.247.743-.1 1.304-.845 1.502a71.59 71.59 0 0 1-3.791.89c-.189.039-.392.006-.65-.034ZM4.972 1.175a.723.723 0 0 1 1.056 0l4.753 4.98a.81.81 0 0 1 0 1.107.723.723 0 0 1-1.056 0L6.247 3.617v14.546c0 .432-.335.782-.747.782s-.747-.35-.747-.782V3.617L1.275 7.262a.723.723 0 0 1-1.056 0 .81.81 0 0 1 0-1.107l4.753-4.98Z" fill="#C2C5C8"/></svg>