<svg width="32" height="20" fill="none" xmlns="http://www.w3.org/2000/svg"><path fill-rule="evenodd" clip-rule="evenodd" d="M12.463 19.02c1.67-2.343 2.698-5.544 2.698-9.075 0-1.722-.245-3.366-.69-4.87l11.984-.036a64.144 64.144 0 0 0-.416-.811 22.33 22.33 0 0 1-.774-1.59c-.304-.717-.79-1.028-1.558-1.076-3.64-.238-7.28-.439-10.918-.21-.252-.39-.52-.76-.803-1.106 3.815-.362 7.63-.358 11.424.24.646.1 1.367.559 1.789 1.07.8.97 1.47 2.054 2.135 3.127l.165.267c.316.51.603.755.883.55.1-.249.178-.505.25-.738.138-.453.25-.817.44-.865.53-.135 1.198.083 1.746.308.227.093.412.59.389.886-.016.204-.393.476-.656.547-.384.105-.784.155-1.215.209-.185.023-.376.047-.574.076.267.148.532.281.79.41.582.294 1.129.569 1.588.948.422.351.8 1.02.814 1.555.061 2.251.048 4.504.035 6.756-.003.593-.007 1.185-.009 1.778a6.597 6.597 0 0 1-.109.974c-.221 1.425-.381 1.564-1.819 1.591a19.57 19.57 0 0 0-.418.014c-.386.015-.772.03-1.15-.018-.328-.043-.803-.184-.916-.422-.388-.812-1.018-.762-1.699-.707l-.106.008c-4.426.34-8.868.409-13.3.21Zm12.782-7.805a7.52 7.52 0 0 0-.457-.062h.003c1.088-1.703 2.21-3.026 4.129-3.383.883-.164 1.368.36 1.61 1.087.248.743-.099 1.304-.844 1.502a71.567 71.567 0 0 1-3.792.89c-.188.039-.392.006-.649-.034ZM5.133 18.716a.723.723 0 0 0 1.056 0l4.753-4.98a.81.81 0 0 0 0-1.107.723.723 0 0 0-1.056 0l-3.478 3.644V1.728c0-.432-.335-.783-.747-.783-.413 0-.747.35-.747.783v14.545L1.436 12.63a.723.723 0 0 0-1.057 0 .81.81 0 0 0 0 1.107l4.754 4.98Z" fill="#C2C5C8"/></svg>