<svg width="26" height="25" fill="none" xmlns="http://www.w3.org/2000/svg"><rect x=".097" width="25" height="25" rx="12.5" fill="#8E8997"/><path d="M15.972 5.5c-1.305 0-2.557.618-3.375 1.59-.817-.972-2.07-1.59-3.375-1.59-2.313 0-4.125 1.843-4.125 4.196 0 2.88 2.55 5.234 6.413 8.8l1.087 1.004 1.088-1.003c3.862-3.567 6.412-5.92 6.412-8.8 0-2.354-1.81-4.197-4.125-4.197Zm-3.296 11.868-.079.072-.078-.072C8.952 14.076 6.597 11.9 6.597 9.696c0-1.522 1.13-2.67 2.625-2.67 1.155 0 2.28.759 2.674 1.8h1.399c.397-1.041 1.522-1.8 2.677-1.8 1.497 0 2.625 1.148 2.625 2.67 0 2.205-2.355 4.38-5.92 7.672Z" fill="#fff"/></svg>