<svg width="109" height="18" fill="none" xmlns="http://www.w3.org/2000/svg"><path d="M8.109 1.542a.889.889 0 0 1 1.56 0l1.787 3.276a.889.889 0 0 0 .617.448l3.668.687a.89.89 0 0 1 .482 1.485l-2.564 2.711a.89.89 0 0 0-.235.725l.48 3.7a.889.889 0 0 1-1.263.918l-3.37-1.6a.889.889 0 0 0-.763 0l-3.371 1.6a.889.889 0 0 1-1.263-.917l.48-3.7a.889.889 0 0 0-.236-.726L1.555 7.438a.889.889 0 0 1 .482-1.485l3.668-.687a.889.889 0 0 0 .617-.448l1.787-3.276Zm22.777 0a.889.889 0 0 1 1.561 0l1.787 3.276a.889.889 0 0 0 .617.448l3.668.687a.89.89 0 0 1 .482 1.485l-2.564 2.711a.889.889 0 0 0-.235.725l.48 3.7a.889.889 0 0 1-1.263.918l-3.371-1.6a.889.889 0 0 0-.763 0l-3.37 1.6a.889.889 0 0 1-1.263-.917l.48-3.7a.889.889 0 0 0-.236-.726l-2.563-2.711a.889.889 0 0 1 .482-1.485l3.668-.687a.889.889 0 0 0 .617-.448l1.786-3.276Zm22.778 0a.889.889 0 0 1 1.56 0l1.788 3.276a.89.89 0 0 0 .616.448l3.668.687a.89.89 0 0 1 .483 1.485l-2.564 2.711a.889.889 0 0 0-.236.725l.48 3.7a.889.889 0 0 1-1.262.918l-3.371-1.6a.889.889 0 0 0-.763 0l-3.37 1.6a.889.889 0 0 1-1.264-.917l.48-3.7a.889.889 0 0 0-.235-.726l-2.563-2.711a.889.889 0 0 1 .482-1.485l3.668-.687a.889.889 0 0 0 .616-.448l1.787-3.276Zm22.778 0a.889.889 0 0 1 1.56 0l1.788 3.276a.889.889 0 0 0 .616.448l3.668.687a.89.89 0 0 1 .483 1.485l-2.564 2.711a.89.89 0 0 0-.236.725l.48 3.7a.889.889 0 0 1-1.262.918l-3.371-1.6a.889.889 0 0 0-.763 0l-3.371 1.6a.889.889 0 0 1-1.263-.917l.48-3.7a.89.89 0 0 0-.235-.726l-2.564-2.711a.889.889 0 0 1 .483-1.485l3.668-.687a.889.889 0 0 0 .616-.448l1.787-3.276Z" fill="#E34646"/><path d="M99.659 1.781a.39.39 0 0 1 .683 0l1.786 3.277c.2.366.554.623.964.7l3.668.687a.389.389 0 0 1 .211.649l-2.564 2.712a1.393 1.393 0 0 0-.368 1.133l.48 3.7a.389.389 0 0 1-.552.402l-3.371-1.6a1.389 1.389 0 0 0-1.191 0l-3.371 1.6a.389.389 0 0 1-.553-.402l.48-3.7a1.389 1.389 0 0 0-.368-1.133L93.03 7.094a.389.389 0 0 1 .212-.65l3.667-.686c.41-.077.764-.334.964-.7L99.66 1.78Z" stroke="#E34646"/></svg>