<svg width="100" height="17" fill="none" xmlns="http://www.w3.org/2000/svg"><path d="M7.22 1.93a.889.889 0 0 1 1.56 0l1.51 2.77a.889.889 0 0 0 .617.447l3.1.58a.89.89 0 0 1 .482 1.485l-2.167 2.292a.889.889 0 0 0-.235.725l.405 3.127a.889.889 0 0 1-1.262.917l-2.85-1.352a.889.889 0 0 0-.762 0L4.77 14.273a.889.889 0 0 1-1.263-.917l.406-3.127a.889.889 0 0 0-.235-.725L1.51 7.212a.889.889 0 0 1 .483-1.484l3.099-.58a.889.889 0 0 0 .617-.449l1.51-2.768Zm21 0a.889.889 0 0 1 1.56 0l1.51 2.77a.889.889 0 0 0 .617.447l3.1.58a.89.89 0 0 1 .482 1.485l-2.167 2.292a.889.889 0 0 0-.235.725l.405 3.127a.889.889 0 0 1-1.262.917l-2.849-1.352a.889.889 0 0 0-.762 0l-2.849 1.352a.889.889 0 0 1-1.262-.917l.405-3.127a.889.889 0 0 0-.235-.725L22.51 7.212a.889.889 0 0 1 .483-1.484l3.1-.58a.889.889 0 0 0 .616-.449l1.51-2.768Zm21 0a.889.889 0 0 1 1.56 0l1.51 2.77a.889.889 0 0 0 .617.447l3.1.58a.89.89 0 0 1 .482 1.485l-2.167 2.292a.889.889 0 0 0-.235.725l.405 3.127a.889.889 0 0 1-1.262.917l-2.849-1.352a.889.889 0 0 0-.762 0l-2.849 1.352a.889.889 0 0 1-1.263-.917l.406-3.127a.889.889 0 0 0-.235-.725L43.51 7.212a.889.889 0 0 1 .483-1.484l3.1-.58a.889.889 0 0 0 .616-.449l1.51-2.768Zm21 0a.889.889 0 0 1 1.56 0l1.51 2.77a.889.889 0 0 0 .617.447l3.1.58a.89.89 0 0 1 .482 1.485l-2.167 2.292a.889.889 0 0 0-.235.725l.406 3.127a.889.889 0 0 1-1.263.917l-2.849-1.352a.889.889 0 0 0-.762 0l-2.849 1.352a.889.889 0 0 1-1.263-.917l.406-3.127a.889.889 0 0 0-.235-.725L64.51 7.212a.889.889 0 0 1 .483-1.484l3.1-.58a.889.889 0 0 0 .616-.449l1.51-2.768Z" fill="#D0E5FF"/><path d="M91.659 2.17a.389.389 0 0 1 .682 0l1.51 2.769c.2.366.554.623.964.7l3.1.58a.389.389 0 0 1 .21.65L95.96 9.16c-.287.303-.422.72-.368 1.133l.406 3.127a.389.389 0 0 1-.553.402l-2.848-1.353a1.388 1.388 0 0 0-1.192 0l-2.848 1.353a.389.389 0 0 1-.553-.402l.406-3.127a1.389 1.389 0 0 0-.368-1.133l-2.167-2.29a.389.389 0 0 1 .21-.65l3.1-.58c.41-.077.764-.334.964-.7l1.51-2.769-.44-.24.44.24Z" stroke="#D0E5FF"/></svg>