<svg width="25" height="24" fill="none" xmlns="http://www.w3.org/2000/svg"><g clip-path="url(#a)" fill="#8E8997"><path d="M12.107 24.006c-2.884-.058-5.75-.23-8.565-.895a18.898 18.898 0 0 1-2.513-.847c-.398-.16-.88-.381-.886-.877-.007-.495.478-.73.875-.874 1.03-.37 2.068-.755 3.134-.982 1.255-.267 2.544-.368 3.817-.555.255-.036.408.058.576.241.943 1.034 1.896 2.06 2.86 3.075.482.504.948.505 1.427 0a183.71 183.71 0 0 0 2.86-3.073.623.623 0 0 1 .573-.25c2.071.184 4.128.448 6.094 1.16.513.192 1 .448 1.45.762.44.302.449.68 0 .97a8.189 8.189 0 0 1-1.77.868c-1.834.62-3.745.883-5.664 1.033-1.422.115-2.846.163-4.268.244Z"/><path d="M12.07 21.74a8.365 8.365 0 0 1-.469-.45c-2.292-2.323-4.385-4.8-5.963-7.679C4.806 12.085 4.165 10.496 4 8.742c-.36-3.875 2.392-7.67 6.205-8.525 5.105-1.148 9.786 2.39 10.053 7.618.086 1.691-.434 3.26-1.145 4.766-1.336 2.822-3.242 5.245-5.35 7.518-.524.565-1.113 1.067-1.693 1.62ZM19.41 8.1a7.292 7.292 0 0 0-4.482-6.746 7.282 7.282 0 0 0-9.946 5.292 7.293 7.293 0 0 0 3.084 7.49 7.282 7.282 0 0 0 4.046 1.235 7.308 7.308 0 0 0 7.293-7.27h.005Z"/><path d="M12.12 14.505a6.426 6.426 0 0 1-5.936-3.98 6.435 6.435 0 0 1 4.706-8.763 6.425 6.425 0 0 1 6.594 2.756 6.434 6.434 0 0 1-5.364 9.987Zm.157-4.83c.625.632 1.18 1.2 1.742 1.771a.91.91 0 0 0 .832.317c.746-.125 1.248-.972.97-1.665-.316-.841-.632-1.685-.97-2.52-.09-.226-.085-.38.108-.555.35-.32.678-.665 1.008-1.006.541-.562.555-1.331.042-1.847s-1.284-.504-1.845.039c-.324.329-.667.659-.984 1.008-.174.192-.332.203-.555.113-.871-.344-1.75-.669-2.623-1.006-.302-.117-.607-.13-.854.076-.658.555-1.136 1.167-.2 1.965.075.065.139.139.212.212l1.387 1.364c-.384.357-.717.677-1.065.981a.35.35 0 0 1-.295.075c-.67-.31-1.09.06-1.49.514-.37.416-.385.868 0 1.272a33.577 33.577 0 0 0 1.762 1.739c.21.167.476.25.744.234.665-.052 1.22-.982 1.034-1.626a.473.473 0 0 1 .023-.37c.301-.353.638-.691 1.017-1.086Z"/><path d="m10.066 11.888-1.75-1.758c.158-.257.334-.45.727-.278.333.147.663.049.927-.216.362-.363.73-.72 1.085-1.09.381-.4.39-.871 0-1.265-.577-.584-1.176-1.15-1.759-1.714.15-.4.342-.488.705-.336.821.343 1.653.632 2.485.963.466.186.845.107 1.186-.256.318-.338.65-.658.97-.986.321-.327.556-.383.766-.181.211.2.167.445-.181.793-.348.349-.66.68-1.004 1.008a.929.929 0 0 0-.232 1.095c.323.832.624 1.687.97 2.517.14.337.083.542-.328.734-.534-.555-1.095-1.138-1.654-1.724a.909.909 0 0 0-.832-.322c-.397.067-1.777 1.444-1.83 1.838a1.23 1.23 0 0 0 .027.444c.095.431.102.43-.278.734Z"/></g><defs><clipPath id="a"><path fill="#fff" transform="translate(.143)" d="M0 0h24v24H0z"/></clipPath></defs></svg>