<svg width="14" height="11" fill="none" xmlns="http://www.w3.org/2000/svg"><g clip-path="url(#a)"><path d="M14 1.753c-.07.344-.285.592-.527.832a8129.897 8129.897 0 0 0-7.58 7.525c-.34.339-.737.487-1.204.324a1.289 1.289 0 0 1-.466-.293 579.395 579.395 0 0 1-3.86-3.827c-.518-.517-.474-1.26.089-1.696.44-.341 1.058-.277 1.497.154.99.981 1.98 1.964 2.968 2.948a1.5 1.5 0 0 1 .117.166 1.5 1.5 0 0 1 .117-.158L12.043.883c.334-.332.72-.47 1.181-.326.403.125.643.407.748.809.008.03.019.059.028.088v.299Z" fill="#8E8997"/></g><defs><clipPath id="a"><path fill="#fff" transform="translate(0 .5)" d="M0 0h14v10H0z"/></clipPath></defs></svg>