<svg width="25" height="24" fill="none" xmlns="http://www.w3.org/2000/svg"><g clip-path="url(#a)"><path d="M15.874 13.142h-7.58c.26-.437.482-.851.74-1.231a.57.57 0 0 1 .373-.158c1.795-.218 3.585-.12 5.38 0a.655.655 0 0 1 .618.437c.129.304.29.596.47.952Zm-8.377 1.111a.763.763 0 0 0-.57.339.56.56 0 0 0 .076.541 3.508 3.508 0 0 0 2.197.455c-.492-.673-.926-1.247-1.703-1.335Zm9.353-.017c-.76.135-1.21.655-1.646 1.338.143.03.29.044.437.04a26.91 26.91 0 0 0 1.506-.35.436.436 0 0 0 .339-.596c-.094-.288-.284-.497-.636-.432Zm7.127-1.434c-.363.917-1.074 1.373-2.059 1.408-.098 0-.197.02-.34.032v7.002c0 1.427-.874 2.5-2.197 2.71-.384.04-.771.052-1.157.033H5.409c-1.574 0-2.681-1.111-2.69-2.699v-7.054l-.436-.03a2.116 2.116 0 0 1-1.965-1.429 2.088 2.088 0 0 1 .5-2.345c1.29-1.299 2.576-2.57 3.864-3.88a5505.78 5505.78 0 0 0 5.83-5.816c.749-.734 1.7-.94 2.568-.516.266.137.508.316.718.529a7266.07 7266.07 0 0 1 9.62 9.607c.692.705.924 1.526.559 2.448Zm-5.915 1.86a.956.956 0 0 0-.323-.62 6.373 6.373 0 0 0-.945-.544c.239-.023.476-.06.711-.111.105-.031.256-.138.262-.219a.438.438 0 0 0-.157-.351 1.206 1.206 0 0 0-.694-.127c-.114.03-.16.347-.275.64-.112.078-.219-.02-.352-.219a11.936 11.936 0 0 0-.91-1.353 1.267 1.267 0 0 0-.71-.437 18.415 18.415 0 0 0-4.865-.076 1.14 1.14 0 0 0-.901.465c-.323.484-.631.982-.963 1.465-.055.083-.192.115-.29.172-.046-.09-.13-.176-.134-.268 0-.23-.024-.437-.319-.437-.294 0-.598-.035-.707.332-.057.199-.024.365.218.402l.682.104v.072c-.072.027-.14.057-.219.081-.668.219-.928.572-.943 1.256-.013.576-.03 1.146-.03 1.718 0 .572 0 1.12.052 1.677.048.624.175.723.764.718.219.01.437.004.655-.017a.53.53 0 0 0 .363-.18c.126-.255.325-.263.55-.244a43.29 43.29 0 0 0 6.987.046c.286-.022.552-.061.716.28.043.093.233.15.362.168.208.015.417.015.625 0 .57 0 .635-.064.725-.631a2.9 2.9 0 0 0 .045-.387 72.34 72.34 0 0 0 .02-3.375Z" fill="#8E8997"/></g><defs><clipPath id="a"><path fill="#fff" transform="translate(.143)" d="M0 0h24.006v24H0z"/></clipPath></defs></svg>